<svg id="Layer_1" data-name="Layer 1" xmlns="http://www.w3.org/2000/svg" viewBox="0 0 491.26 792"><defs><style>.cls-1{fill:#070707;}.cls-2{fill:#0c0c0b;}.cls-3{fill:#fefdfd;}</style></defs><path class="cls-1" d="M.67,328.1q0-139,0-278.08C.66,35.87,5,23.23,15.15,13.38,25.09,3.76,37.57,0,51.4,0q82.13.15,164.27,0,112.5,0,225,0c11.18,0,21.63,2.3,30.9,9.09,13.31,9.75,19.59,23.06,19.63,39.2.13,53.2,0,106.39,0,159.58q0,41.51-.07,83-.09,116.81-.19,233.6,0,40.2-.16,80.42c-.05,13.71-3.79,26.23-13.42,36.28S455.85,655.81,442.13,656c-3,0-6,0-9,0q-191,0-382,0C38,656,26.05,653,16.07,644.1,7.75,636.68,2.3,627.55.78,616.38c-2-14.62-.84-29.33-.86-44-.08-49,.05-98.11.07-147.17q0-48.56,0-97.11Zm235.62,21.34c-31.53-22.89-50.13-53.11-53.43-91.64-3.32-38.78,9.53-72.37,37.52-99.11,51.66-49.37,134.31-45.43,181.46,13.46.91-1.47.08-2.65-.54-3.89-15.18-30.32-37.15-54.58-66.26-71.84-37.82-22.42-78.61-29.88-122-21.54-42,8.08-76.25,29.36-102.83,62.49-23.08,28.78-35.21,62.08-37.29,99-1.91,33.85,7.35,63.78,30.67,88.94C136.85,361.14,191.48,371.31,236.29,349.44ZM254,145.3c55,38.14,67.34,105,41.84,156.45-11.07,22.34-27.33,40.54-49.63,52-54.07,27.89-103.46,18.88-148.52-20.7a147.48,147.48,0,0,0,29,36.87c38.41,35.43,83.6,51.92,136,47.16,34.4-3.13,65.08-15.88,91.71-37.71,38.71-31.72,60.33-72.7,64.33-122.71,2.43-30.5-6.11-57.9-25.54-81.39-21.15-25.56-48.45-39.75-81.93-41.71C291.19,132.43,272.36,136.6,254,145.3ZM110.16,451.38c-21,1.57-35.48,14.77-35.44,34.68s14.71,34.25,35.53,34.27c21.15,0,35.83-14.53,35.63-34.57C145.67,465.35,130.69,452.74,110.16,451.38Zm80.63,27.56,1-.42q5.73,6,11.45,12c8.73,9.2,17.53,18.33,26.13,27.66,2.33,2.52,5.11,1.8,7.51,1.39,1.93-.33.88-2.91.88-4.43.08-17.54.05-35.07.05-52.6,0-10.64,0-10.53-10.61-10.43-2.69,0-3.31.82-3.28,3.39.14,11.55.08,23.09,0,34.64,0,1,.63,2.28-1,3.31-3.48-3.65-7-7.33-10.52-11-9-9.52-18.09-19-27-28.63-2.33-2.53-5.11-1.8-7.51-1.38-1.9.33-.87,2.91-.87,4.43-.08,18,0,35.93,0,53.89,0,9.07,0,8.88,8.91,9.15,3.78.11,5-.74,4.94-4.79C190.59,503.07,190.79,491,190.79,478.94Zm74.46,40.5c13.55,1.64,13.55,1.64,19.07-10.24a3.37,3.37,0,0,0,.19-.38c.64-2.1,2.05-2.7,4.21-2.63,5.13.16,10.36.67,15.38-.09,8.91-1.35,14.34,1.62,16.16,10.62a10.29,10.29,0,0,0,.75,1.53,2.05,2.05,0,0,0,2.19,1.58c4.22-.05,8.44,0,13.12,0-10.61-22.3-21-44.1-31.34-65.94-1.22-2.59-3.39-1.35-5.19-1.65-2-.34-3,.58-3.86,2.42-3.31,7.25-6.81,14.41-10.23,21.61Q275.49,497.81,265.25,519.44Zm128.34,1.23a36.65,36.65,0,0,0,24-11.06c1.64-1.63,1.24-2.39-.27-3.58-2.23-1.76-4.44-3.58-6.49-5.54-1.61-1.54-2.69-1.44-4.19.22-6.44,7.09-14.57,8.3-23.05,5.17-7.79-2.88-12.18-9-13-17.48-.79-8.19,2.08-17.17,11.41-21.44,7.8-3.56,15.7-3.77,22.67,2.73,3.46,3.22,5.19,3.1,8.46.12,7.09-6.46,7-6.16-1-12-15.41-11.27-40-6.54-50.32,9.78-6.62,10.46-7.7,21.55-2.78,32C365.73,513.88,376.25,519.78,393.59,520.67Zm6.88,64.16c10,0,18.61-8.27,18.7-17.81S410.46,548.9,400.31,549c-10,0-18.63,8.27-18.72,17.8S390.34,584.88,400.47,584.83Zm-219.4-1.32c-1.91-2.48-3.57-4.93-5.55-7.11-1.76-1.93-1.65-3,.5-4.65,4.07-3.19,5.53-9.71,3.61-14.86s-5.87-7.6-11.17-7.85c-4.69-.21-9.41,0-14.1-.18-2.46-.11-3.07.69-3,3.07q.19,14.54,0,29.08c0,2.41.65,3,3,3.1,3.4.19,4.45-.91,4.19-4.24-.14-1.65-1.32-4.38,1.88-4.72s6.3-.62,8.07,3.05C171,583.32,175,585.43,181.07,583.51Zm39.62-17.26c0,5.13.07,10.26,0,15.38,0,1.86.49,2.48,2.38,2.41,4.41-.14,8.84.12,13.25-.11,8.26-.45,15-7.21,15.95-15.66A17.77,17.77,0,0,0,240,549.92c-5.89-1.8-11.89-.65-17.83-1-1.91-.11-1.46,1.33-1.47,2.37C220.67,556.28,220.69,561.26,220.69,566.25Zm124.07-.08c0,4.85.14,9.7-.05,14.53-.1,2.49.36,3.59,3.18,3.37,3.68-.28,7.41,0,11.11-.08a17.35,17.35,0,0,0,17.3-15.65c.95-8.3-4.62-16.24-13-18.61-5.61-1.58-11.33-.49-17-.8-2.23-.13-1.52,1.62-1.53,2.72C344.73,556.49,344.76,561.33,344.76,566.17Zm-272.61,19c3.68-1.32,7.53,1.63,8.84-2.62,1.45-4.73,4.51-5.59,8.77-5.06a25.12,25.12,0,0,0,5.55,0c2.68-.27,4.49.65,5.09,3.32.86,3.83,3.53,4.22,6.8,4,1.68-.12,2.52-.49,1.7-2.21-5.09-10.67-10.13-21.36-15.38-31.94-1.28-2.59-3.46-2.63-4.79.08C83.29,561.81,78,573,72.15,585.16Zm58.46-.32a16.58,16.58,0,0,0,11.32-4.18c.93-.76,3.7-1.58,1.48-3.34-1.6-1.27-2.67-5.26-6-2.32a10.5,10.5,0,0,1-6.48,2.92,11.06,11.06,0,0,1-7.54-19.74c4.21-3.1,9.46-3.35,13.36.21s5.13-.37,6.72-1.95c2.13-2.09-1-2.8-2-3.6-6.8-5.37-15.22-5.23-22.85.13-5.95,4.18-8.44,12.46-6,19.86C115,579.8,122.53,584.85,130.61,584.84Zm56.71-17.55c0,4.7.09,9.41,0,14.11-.06,2,.5,2.69,2.59,2.65,7.41-.12,14.83-.18,22.24,0,2.61.07,2.67-1.13,2.63-3s.15-3.24-2.57-3.1c-5.12.25-10.27-.13-15.39.14-3.54.18-2.6-2.13-2.57-3.89s-1.1-4.18,2.51-3.93,7.42-.14,11.11.12c2.62.18,2.67-1.13,2.63-3s.16-3.29-2.57-3.09c-3.69.28-7.42-.12-11.11.12-4,.25-2.54-2.6-2.52-4.3s-1.54-4.55,2.47-4.36c4.55.22,9.13-.13,13.68.12,2.62.15,2.65-1.14,2.62-3s.13-3.18-2.58-3.09c-6.83.22-13.68.14-20.52,0-2,0-2.71.49-2.65,2.59C187.42,557.31,187.32,562.3,187.32,567.29ZM339.6,583.62c-5.36-11.07-10.7-22-15.92-33a2.52,2.52,0,0,0-2.51-1.7c-1.72-.1-2.46.71-3.15,2.19-4,8.49-8.09,16.92-12.14,25.38-1.13,2.36-2.23,4.74-3.37,7.19,4.87,1.05,8.29.64,9.92-4.6.95-3.06,16.23-3.09,17.15,0C331.24,584.56,334.85,584.65,339.6,583.62Zm-50.81-34.69c-3.84,0-7.68,0-11.52,0-2.06,0-3.77-.3-3.65,2.9.11,2.79.85,3.9,3.63,3.49.84-.12,1.72.08,2.55,0,3.74-.53,5.3.62,5.07,4.79-.38,7,.06,13.94-.18,20.9-.1,3.06,1.45,3.13,3.63,3s4.31.61,4.13-3c-.28-5.53-.08-11.09-.08-16.63,0-8.52,0-8.65,8.31-9,2.8-.11,2.78-1.54,2.87-3.55s-.46-3.06-2.82-3C296.76,549.06,292.77,548.92,288.79,548.93Zm-28.74,17.19c0,5,.15,10-.06,15-.11,2.56.84,3.21,3.15,2.94,1.8-.22,3.91.78,3.83-2.69-.22-10-.19-20,0-29.94.06-3.21-1.88-2.39-3.59-2.49-1.92-.11-3.56-.31-3.4,2.67C260.24,556.41,260.05,561.27,260.05,566.12Z"/><path class="cls-2" d="M260.25,771.79c5.91,2.78,7.49,5.43,6.85,10.87-.52,4.31-3.4,7.32-8.6,8.1-3.49.52-7.09.22-10.64.37-1.63.07-1.82-.82-1.82-2.12q0-14.75,0-29.49c0-1.77.48-2.58,2.4-2.5,2.42.09,4.85-.28,7.26-.12,4,.27,7.69,1.22,9.14,5.61S264,769.56,260.25,771.79Zm-9.6,8.55c0,7.52,1.56,8.83,7.78,6.52,3.24-1.2,4.86-4.59,4-8.32s-4.39-5.41-9.68-4.72c-4.16.55-1.21,3.83-2.05,5.67A2.19,2.19,0,0,0,250.65,780.34Zm2.92-9.75c4.84,0,7.42-1.82,7.18-5.29-.29-4.2-3.46-4.46-6.71-4.75-2.92-.25-4,1.07-3.31,3.65C251.36,766.42,248.2,770.55,253.57,770.59Z"/><path class="cls-2" d="M68.55,718.41a21.27,21.27,0,0,1,2.64-10.64c2.7-4.6,6.74-6.89,12.07-6.51s9.53,2.88,11.58,8a24.71,24.71,0,0,1,.22,18c-2.16,6-6.81,9.18-13,9.09-5.72-.08-9.87-3.22-12-9.15A23.08,23.08,0,0,1,68.55,718.41Zm23.12-.19a18.44,18.44,0,0,0-1.54-8.29c-1.67-3.27-4.43-4.58-8-4.6a7.18,7.18,0,0,0-7.3,4.84,21.55,21.55,0,0,0,.39,17.36c1.36,2.89,3.53,4.73,7,4.71A8.23,8.23,0,0,0,90,727.35C91.47,724.45,91.62,721.36,91.67,718.22Z"/><path class="cls-2" d="M309.58,774.11c-.51,3.94-.48,7.94-2.26,11.64-2.09,4.37-5.37,6.54-9.65,6.22-4.5-.34-7.48-2.68-8.72-7.42-1.72-6.54-2.12-13.18.09-19.72,1.93-5.7,6-8.53,11.09-7.92s8,4,8.74,10C309.18,769.3,309.34,771.71,309.58,774.11Zm-4.84.45c0-3.32.18-6.32-.65-9.23-.76-2.69-2.4-4.66-5.34-4.65a5.4,5.4,0,0,0-5.28,4.21,33.37,33.37,0,0,0,.07,19.22c.67,2.35,2.32,4.09,4.89,4s4.35-1.68,5.25-4.24C304.78,780.73,304.65,777.47,304.74,774.56Z"/><path class="cls-2" d="M139.09,718.54c0-4.56.12-9.12-.05-13.66-.08-2.27.64-2.92,2.88-2.85,5,.17,10,.09,15,0,1.51,0,2.33.21,2.28,2s-.78,2.15-2.34,2.12c-3.41-.08-6.83.09-10.24-.07-2.14-.1-3.28.41-2.89,2.76a7.82,7.82,0,0,1,0,1.28c0,5.59,0,5.39,5.53,5.7,1.83.1,5.26-1.92,5.42,1.53.19,4.22-3.61,1.86-5.46,2-5.47.34-5.49.12-5.49,5.77,0,6.21,0,6.21,6.21,6.21,2.28,0,4.56.06,6.83,0,1.71-.06,2.16.73,2.2,2.31s-.87,1.82-2.13,1.82c-5.13,0-10.25-.09-15.37,0-1.94.05-2.4-.69-2.37-2.47C139.16,728.22,139.09,723.38,139.09,718.54Z"/><path class="cls-2" d="M274.71,717.47c-.26,5.51-.65,10-3,14.1a9,9,0,0,1-9.29,4.72c-4-.42-7.08-2.54-8.16-6.46a36.31,36.31,0,0,1-.16-20.58c1.68-5.47,5.79-8.35,10.67-8,5.09.36,8.1,3.49,9.06,9.57C274.25,713.33,274.5,715.87,274.71,717.47Zm-17.42.94c.32,3,0,6.33,1.13,9.49.84,2.45,2.19,4.55,4.94,4.61s4.69-1.62,5.46-4.46a38.48,38.48,0,0,0,.34-18.5,5.29,5.29,0,0,0-5-4.5c-2.74-.13-4.48,1.56-5.5,4C257.38,711.94,257.51,715.11,257.29,718.41Z"/><path class="cls-2" d="M389.71,718.56c-.18,4-.44,8-2.17,11.65-2,4.31-5.46,6.48-9.74,6.13a9.15,9.15,0,0,1-8.72-7.46c-1.57-6.41-2-12.92,0-19.33,1.83-5.66,5.55-8.53,10.46-8.32,5.09.22,8.17,3.14,9.37,9.29A79.27,79.27,0,0,1,389.71,718.56Zm-4.75-.33c-.13-2.82.24-5.66-.64-8.45s-2.39-4.68-5.3-4.72-4.66,1.83-5.45,4.54a32.22,32.22,0,0,0,.21,18.83c.73,2.4,2.26,4.1,4.81,4.09s4.45-1.66,5.32-4.19A27.78,27.78,0,0,0,385,718.23Z"/><path class="cls-2" d="M334,773.78A31.34,31.34,0,0,1,332,785.07c-1.94,4.86-5.48,7.26-10.07,6.88s-7.83-3.19-8.9-8.29a37.56,37.56,0,0,1,0-17.7c1.61-6,5.59-9.33,10.72-9.1s8.08,3.16,9.35,9.76C333.57,769,333.68,771.39,334,773.78Zm-4.73.14a27.6,27.6,0,0,0-.71-8.45c-.78-2.71-2.36-4.69-5.25-4.79s-4.77,1.8-5.53,4.47a33.12,33.12,0,0,0,.18,18.87c.7,2.36,2.25,4.13,4.81,4.12s4.45-1.56,5.3-4.15A27.71,27.71,0,0,0,329.22,773.92Z"/><path class="cls-2" d="M166.42,777.45c-10.84,2.28-17.14-4-14.26-13.53a9.23,9.23,0,0,1,8.59-7,10,10,0,0,1,10.05,5.77c4.1,8.77-.65,23.31-9.17,28.1-1.37.77-2.76,1.69-4-.19s.85-2,1.52-2.78C161.8,784.67,164.73,781.78,166.42,777.45ZM156.33,767.4c0,4.26,2.24,7.13,5.61,7.13s5.58-2.46,5.66-6.57c.09-4.57-2.13-7.36-5.83-7.35C158.53,760.63,156.35,763.34,156.33,767.4Z"/><path class="cls-2" d="M304.24,709.51c0-8.28,0-8.28,8.43-8.28,2.14,0,4.27,0,6.4,0,1.2,0,1.83.26,1.78,1.64S320.67,705,319,705c-2.7-.08-5.42-.13-8.11,0-4.85.25-2.18,4-2.55,6.15-.55,3.13,1.71,1.45,3,1.28,5.7-.77,9.8,2.28,10.69,8.32.73,4.92.49,9.88-3.71,13.31-3.58,2.93-7.9,2.94-12.13,1.34-1.17-.45-3.11-.78-2.38-2.8.39-1.1.63-3,2.84-1.54,3.14,2,6.44,2.38,9.22-.69,2.15-2.36,2.24-9.08.38-11.77s-5.37-3.25-9.1-1c-2.45,1.46-2.95.71-2.93-1.65C304.26,713.78,304.24,711.65,304.24,709.51Z"/><path class="cls-2" d="M215.14,791.36,229,756.88l1-.1c4.2,11.27,8.39,22.54,12.61,33.89-3.62,1.32-5.57.2-6.14-3.37-.37-2.31-1.58-3.48-4.1-3.06a13.65,13.65,0,0,1-3.83,0c-3.93-.53-6.84.2-7.54,4.84C220.48,792.48,217.73,790.66,215.14,791.36Zm8.94-10.68H234c-1.51-4.73-3-9.23-4.74-14.86Z"/><path class="cls-2" d="M351.12,731.38h10.27c1.44,0,2.83-.21,2.92,2s-1.25,2.1-2.72,2.1c-5.83,0-11.66,0-17.82,0,.75-3.49,3.17-5.76,4.76-8.45,2.6-4.39,6-8.34,8-13.06,1.12-2.61,2.19-5.71-.69-7.81s-6-1.45-8.41,1.16c-1.2,1.31-1.91,1.17-3,0-1.3-1.34-.45-2.27.41-3.27,2.78-3.22,9-3.85,13.44-1.35,3.5,2,4.84,5.93,3.36,10.43-1.34,4.09-3.93,7.53-6.14,11.16C354.19,726.49,352.85,728.6,351.12,731.38Z"/><path class="cls-2" d="M344.35,787c4,0,7.41,0,10.78,0,1.58,0,2.28.49,2.33,2.2.06,2-1.09,1.94-2.45,1.94-6,0-11.93,0-18.79,0,3.25-5,6.16-9.47,9-14,1.83-2.86,3.89-5.58,4.88-8.92.74-2.49,1.09-5-1.27-6.58s-5.13-1.36-7.51.5c-1.2.94-2.14,3.08-3.88.71-1.54-2.11.4-3.15,1.58-4.11,3.28-2.67,9.72-2.53,13.26.1,3.12,2.32,3.92,6.56,1.94,11.26C351.82,775.9,347.79,780.76,344.35,787Z"/><path class="cls-2" d="M285.21,731.38h9.93c1.42,0,2.83-.3,2.91,2s-1.09,2.18-2.65,2.16c-4.84,0-9.68,0-14.53,0H277c3.2-5,6.06-9.42,8.95-13.88,1.77-2.73,3.77-5.35,4.78-8.5.8-2.49,1.46-5.21-1.08-7s-5.52-1.39-7.84.69c-1.29,1.15-2.17,2.29-3.62.46s.28-2.87,1.31-3.81c3.08-2.83,9.41-2.94,13.21-.39,3.27,2.2,4.24,6,2.55,10.69C293,719.9,288.54,724.83,285.21,731.38Z"/><path class="cls-2" d="M52.18,736.31c-.74-.2-2.52-.64-4.29-1.14s-1.49-1.55-1-2.89,1-2.29,2.7-1.18A6.16,6.16,0,0,0,52,732c3.41.54,6.76.6,8.12-3.45,1.25-3.75-1-5.85-4-7.42-1.76-.92-3.62-1.68-5.33-2.68a9.44,9.44,0,0,1-4.6-10.17,9.25,9.25,0,0,1,8.24-7,18.16,18.16,0,0,1,7.17.85c1.73.51,1.46,1.53,1,2.95-.5,1.66-1.23,1.58-2.48,1a14.59,14.59,0,0,0-2.44-.73c-2.93-.74-5.43-.29-6.72,2.79s.17,5.24,2.71,6.81c1.44.89,3,1.59,4.53,2.36,5.52,2.75,7.84,7,6.47,12C63.48,733.7,58.92,736.53,52.18,736.31Z"/><path class="cls-2" d="M162.52,718.69c0-12.65,8.87-20,20.13-16.7,1.31.38,2.94.33,2.24,2.61-.6,2-1.54,1.63-3.18,1.27-8.44-1.88-12.73,1.31-14.26,10.06a17.57,17.57,0,0,0,1.34,10.8c2.6,5.46,8.45,7.18,13.59,4,1.57-1,2.44-1.5,3.6.41,1.27,2.09-.53,2.51-1.57,3.15-9.65,6-20.75-.38-21.88-12.58C162.44,720.69,162.52,719.69,162.52,718.69Z"/><path class="cls-2" d="M231.6,735.75c3.52-10.83,8.28-20.16,13-30.21H231.69c-1.39,0-2.77.34-2.82-2s1.23-2.36,2.92-2.34c5.4,0,10.81.07,16.21,0,2.14,0,3.39.18,2.09,2.78a240.59,240.59,0,0,0-13,30C236.12,736.85,233.77,734.86,231.6,735.75Z"/><path class="cls-2" d="M433,705.54c-4.75,0-9-.07-13.23,0-1.77,0-2.52-.35-2.48-2.32,0-1.81.8-2.06,2.31-2,5.68,0,11.37.09,17.05,0,2.87-.05,2.61,1.16,1.68,3.11-2.56,5.36-5.1,10.74-7.5,16.17a84.74,84.74,0,0,0-4.35,11c-.94,3.35-2.39,4.94-6.17,3.6C423.42,725.07,428.33,715.72,433,705.54Z"/><path class="cls-1" d="M194.92,774c0-4.28,0-8.56,0-12.84,0-1.45-1-3.45,2.11-3.51s2.31,1.76,2.31,3.35c0,7.27.16,14.55-.06,21.82-.1,3.2.54,4.7,4.11,4.29,3-.33,6,0,9-.09,1.55,0,2.27.35,2.35,2.11s-.8,2-2.27,2c-5,0-10-.11-15,0-2,.06-2.71-.52-2.64-2.6C195,783.69,194.92,778.84,194.92,774Z"/><path class="cls-2" d="M35.56,718.59c0-4.54,0-9.08,0-13.62,0-1.61-.23-3,2.27-3,2.16.07,2.15,1.17,2.15,2.71q0,14.06,0,28.1c0,1.5.09,2.68-2.1,2.75-2.47.07-2.33-1.28-2.32-2.93C35.58,728,35.56,723.27,35.56,718.59Z"/><path class="cls-2" d="M131.14,718.43c0,4.82,0,9.65,0,14.47,0,1.55,0,2.69-2.15,2.66-2,0-2.3-.88-2.29-2.58q.09-14.25,0-28.52c0-1.85.58-2.43,2.43-2.43s2,.87,2,2.35C131.11,709.06,131.14,713.74,131.14,718.43Z"/><path class="cls-1" d="M141.2,757.13c0,10.73,0,21.47,0,32.21,0,2.07-1.3,1.65-2.54,1.78-1.93.2-2-.92-2-2.35,0-7.52,0-15,0-22.79-2.69.28-4.1,2.69-6.45,3.31-1.85-4.1,2-4.87,4-6.54A66.37,66.37,0,0,1,141.2,757.13Z"/><path class="cls-1" d="M213.84,709.82,207.39,714c-1.81-4.32,2-5,4-6.82s4.13-3.85,6.21-5.79c1.22.29.79,1.32.79,2.06,0,9.66,0,19.31,0,29,0,1.82.14,3.22-2.53,3.15s-2-1.77-2-3.16C213.82,725.16,213.84,717.92,213.84,709.82Z"/><path class="cls-1" d="M406.64,701.48c0,10.71,0,21.42,0,32.13,0,2-1.14,1.8-2.46,1.9-1.7.12-2.18-.54-2.15-2.18.07-6.1,0-12.21,0-18.32v-5.17l-7.15,4.6c.83-7.64,8.52-8.14,10.69-13.37Z"/><path class="cls-2" d="M118.1,701.67c-3.73,10.56-7.52,21.09-11.14,31.67-.85,2.48-2.32,2.39-4.35,1.86,3.75-10.55,7.49-20.94,11.1-31.39C114.52,701.49,115.62,700.53,118.1,701.67Z"/><path class="cls-2" d="M182.8,779.83c-1.54-.27-3.33.62-4.49-.51-.82-.79-.87-3.11,0-3.26a29,29,0,0,1,8.73-.07c1,.15.93,2.44.1,3.3C186,780.48,184.24,779.53,182.8,779.83Z"/><path class="cls-2" d="M277.54,775.68c1,0,2,.07,3,0,1.47-.12,2,.47,1.92,1.94-.07,1.27-.16,2.26-1.81,2.19s-3.41,0-5.12,0c-1.48,0-2.73.11-2.8-2.08s1.26-2.08,2.7-2C276.12,775.69,276.83,775.68,277.54,775.68Z"/><path class="cls-2" d="M332.89,717.53c-2.08-.33-3.28-1.61-3.24-3.45a3.33,3.33,0,1,1,6.63.42C336.05,716.51,334.66,717.34,332.89,717.53Z"/><path class="cls-2" d="M336.35,733c-.21,2-1.36,3.23-3.27,3.29a3.17,3.17,0,0,1-3.43-3.49,3.11,3.11,0,0,1,3.24-3.25C335,729.55,336.22,730.83,336.35,733Z"/><path class="cls-3" d="M236.29,349.44c-44.81,21.87-99.44,11.7-132.65-24.14C80.32,300.14,71.06,270.21,73,236.36c2.08-36.91,14.21-70.21,37.29-99C136.84,104.24,171.13,83,213.09,74.88c43.34-8.34,84.13-.88,122,21.54,29.11,17.26,51.08,41.52,66.26,71.84.62,1.24,1.45,2.42.54,3.89-47.15-58.89-129.8-62.83-181.46-13.46-28,26.74-40.84,60.33-37.52,99.11C186.16,296.33,204.76,326.55,236.29,349.44Z"/><path class="cls-3" d="M254,145.3c18.35-8.7,37.18-12.87,57.28-11.7,33.48,2,60.78,16.15,81.93,41.71,19.43,23.49,28,50.89,25.54,81.39-4,50-25.62,91-64.33,122.71-26.63,21.83-57.31,34.58-91.71,37.71-52.38,4.76-97.57-11.73-136-47.16a147.48,147.48,0,0,1-29-36.87c45.06,39.58,94.45,48.59,148.52,20.7,22.3-11.5,38.56-29.7,49.63-52C321.35,250.26,309,183.44,254,145.3Z"/><path class="cls-3" d="M110.16,451.38c20.53,1.36,35.51,14,35.72,34.38.2,20-14.48,34.6-35.63,34.57-20.82,0-35.49-14.22-35.53-34.27S89.2,453,110.16,451.38Zm.14,56.08c11.58,0,21.65-9.92,21.71-21.4s-10-21.41-21.63-21.48S88.76,474.47,88.71,486,98.71,507.45,110.3,507.46Z"/><path class="cls-3" d="M190.79,478.94c0,12.06-.2,24.13.11,36.18.1,4-1.16,4.9-4.94,4.79-8.91-.27-8.91-.08-8.91-9.15,0-18,0-35.92,0-53.89,0-1.52-1-4.1.87-4.43,2.4-.42,5.18-1.15,7.51,1.38,8.88,9.64,18,19.11,27,28.63,3.51,3.7,7,7.38,10.52,11,1.61-1,1-2.29,1-3.31,0-11.55.1-23.09,0-34.64,0-2.57.59-3.37,3.28-3.39,10.61-.1,10.61-.21,10.61,10.43,0,17.53,0,35.06-.05,52.6,0,1.52,1.05,4.1-.88,4.43-2.4.41-5.18,1.13-7.51-1.39-8.6-9.33-17.4-18.46-26.13-27.66q-5.72-6-11.45-12Z"/><path class="cls-3" d="M265.25,519.44q10.26-21.68,20.45-43.19c3.42-7.2,6.92-14.36,10.23-21.61.84-1.84,1.87-2.76,3.86-2.42,1.8.3,4-.94,5.19,1.65,10.33,21.84,20.73,43.64,31.34,65.94-4.68,0-8.9,0-13.12,0a2.05,2.05,0,0,1-2.19-1.58,10.29,10.29,0,0,1-.75-1.53c-1.82-9-7.25-12-16.16-10.62-5,.76-10.25.25-15.38.09-2.16-.07-3.57.53-4.21,2.63a3.37,3.37,0,0,1-.19.38C278.8,521.08,278.8,521.08,265.25,519.44Zm35.36-46.82c-3.3,7.24-6.25,13.68-9.17,20.13-.63,1.41.24,1.8,1.42,1.8,5.13,0,10.26,0,15.4,0,1.56,0,2.07-.72,1.41-2.15C306.79,486.07,303.89,479.77,300.61,472.62Z"/><path class="cls-3" d="M393.59,520.67c-17.34-.89-27.86-6.79-34.54-21-4.92-10.48-3.84-21.57,2.78-32,10.31-16.32,34.91-21,50.32-9.78,8,5.84,8.09,5.54,1,12-3.27,3-5,3.1-8.46-.12-7-6.5-14.87-6.29-22.67-2.73-9.33,4.27-12.2,13.25-11.41,21.44.82,8.45,5.21,14.6,13,17.48,8.48,3.13,16.61,1.92,23.05-5.17,1.5-1.66,2.58-1.76,4.19-.22,2,2,4.26,3.78,6.49,5.54,1.51,1.19,1.91,2,.27,3.58A36.65,36.65,0,0,1,393.59,520.67Z"/><path class="cls-3" d="M400.47,584.83c-10.13,0-19-8.42-18.88-18.08S390.33,549,400.31,549c10.15-.05,19,8.39,18.86,18.07S410.45,584.79,400.47,584.83ZM400.2,578a11.07,11.07,0,1,0-11-11.26A11.27,11.27,0,0,0,400.2,578Z"/><path class="cls-3" d="M181.07,583.51c-6.11,1.92-10.1-.19-12.57-5.31-1.77-3.67-5-3.37-8.07-3.05s-2,3.07-1.88,4.72c.26,3.33-.79,4.43-4.19,4.24-2.39-.13-3.07-.69-3-3.1q.21-14.53,0-29.08c0-2.38.58-3.18,3-3.07,4.69.22,9.41,0,14.1.18,5.3.25,9.26,2.76,11.17,7.85s.46,11.67-3.61,14.86c-2.15,1.69-2.26,2.72-.5,4.65C177.5,578.58,179.16,581,181.07,583.51Zm-22.8-21.36c1.32,2.28-2.72,7.26,4,7,7.14-.26,10.55-2.32,10.55-7.18s-3-6.5-10.19-6.88C156.2,554.76,159.1,559.32,158.27,562.15Z"/><path class="cls-3" d="M220.69,566.25c0-5,0-10,0-15,0-1-.44-2.48,1.47-2.37,5.94.35,11.94-.8,17.83,1a17.77,17.77,0,0,1,12.23,18.35c-.92,8.45-7.69,15.21-15.95,15.66-4.41.23-8.84,0-13.25.11-1.89.07-2.42-.55-2.38-2.41C220.76,576.51,220.69,571.38,220.69,566.25Zm6.95.11v3.42c0,8,1.32,9.1,9.31,7.27,4.32-1,6.79-3.93,7.81-8.14s-.35-7.87-3.53-10.73A12.36,12.36,0,0,0,228.75,556c-2.64.91-.63,5.1-1.08,7.78A14.46,14.46,0,0,0,227.64,566.36Z"/><path class="cls-3" d="M344.76,566.17c0-4.84,0-9.68,0-14.52,0-1.1-.7-2.85,1.53-2.72,5.66.31,11.38-.78,17,.8,8.37,2.37,13.94,10.31,13,18.61A17.35,17.35,0,0,1,359,584c-3.7.07-7.43-.2-11.11.08-2.82.22-3.28-.88-3.18-3.37C344.9,575.87,344.76,571,344.76,566.17Zm7,.06v4.27c0,7.23,0,7.19,7.06,6.83a10.11,10.11,0,0,0,9.37-6.26,10.58,10.58,0,0,0-1.54-11.61c-3.47-4.41-8.69-4.76-13.28-3.59-3.47.87-.94,5.14-1.58,7.8A10.93,10.93,0,0,0,351.72,566.23Z"/><path class="cls-3" d="M72.15,585.16C78,573,83.29,561.81,88.73,550.71c1.33-2.71,3.51-2.67,4.79-.08,5.25,10.58,10.29,21.27,15.38,31.94.82,1.72,0,2.09-1.7,2.21-3.27.23-5.94-.16-6.8-4-.6-2.67-2.41-3.59-5.09-3.32a25.12,25.12,0,0,1-5.55,0c-4.26-.53-7.32.33-8.77,5.06C79.68,586.79,75.83,583.84,72.15,585.16Zm18.73-24.52c-.76,1.63-1.5,3-2,4.36-.68,1.94-3.17,4.19-1.94,5.62,1.44,1.68,4.52.42,6.87.62a3,3,0,0,0,.42,0c1.35-.1,1.84-.86,1.19-2C93.87,566.58,93.28,563.41,90.88,560.64Z"/><path class="cls-3" d="M130.61,584.84c-8.08,0-15.62-5-18-12-2.47-7.4,0-15.68,6-19.86,7.63-5.36,16.05-5.5,22.85-.13,1,.8,4.1,1.51,2,3.6-1.59,1.58-3,5.37-6.72,1.95s-9.15-3.31-13.36-.21a11.06,11.06,0,0,0,7.54,19.74,10.5,10.5,0,0,0,6.48-2.92c3.35-2.94,4.42,1,6,2.32,2.22,1.76-.55,2.58-1.48,3.34A16.58,16.58,0,0,1,130.61,584.84Z"/><path class="cls-3" d="M187.32,567.29c0-5,.1-10,0-15-.06-2.1.63-2.63,2.65-2.59,6.84.11,13.69.19,20.52,0,2.71-.09,2.55,1.26,2.58,3.09s0,3.19-2.62,3c-4.55-.25-9.13.1-13.68-.12-4-.19-2.44,2.68-2.47,4.36s-1.46,4.55,2.52,4.3c3.69-.24,7.42.16,11.11-.12,2.73-.2,2.54,1.28,2.57,3.09s0,3.22-2.63,3c-3.69-.26-7.42.13-11.11-.12s-2.47,2.23-2.51,3.93-1,4.07,2.57,3.89c5.12-.27,10.27.11,15.39-.14,2.72-.14,2.54,1.28,2.57,3.1s0,3.11-2.63,3c-7.41-.21-14.83-.15-22.24,0-2.09,0-2.65-.62-2.59-2.65C187.41,576.7,187.32,572,187.32,567.29Z"/><path class="cls-3" d="M339.6,583.62c-4.75,1-8.36.94-10-4.61-.92-3-16.2-3-17.15,0-1.63,5.24-5.05,5.65-9.92,4.6,1.14-2.45,2.24-4.83,3.37-7.19C309.93,568,314,559.57,318,551.08c.69-1.48,1.43-2.29,3.15-2.19a2.52,2.52,0,0,1,2.51,1.7C328.9,561.6,334.24,572.55,339.6,583.62Zm-18.65-23c-2.17,2.4-2.83,5.51-4.25,8.2-.64,1.2,0,1.93,1.31,1.91,2.39,0,5.5.72,7-.48,1.67-1.35-1.05-3.61-1.67-5.52A7.55,7.55,0,0,0,321,560.67Z"/><path class="cls-3" d="M288.79,548.92c4,0,8,.14,11.94,0,2.36-.11,2.93.8,2.82,3s-.07,3.44-2.87,3.55c-8.31.31-8.31.44-8.31,9,0,5.54-.2,11.1.08,16.63.18,3.63-2.07,2.92-4.13,3s-3.73,0-3.63-3c.24-7-.2-14,.18-20.9.23-4.17-1.33-5.32-5.07-4.79-.83.12-1.71-.08-2.55,0-2.78.41-3.52-.7-3.63-3.49-.12-3.2,1.59-2.93,3.65-2.9C281.11,549,285,548.93,288.79,548.92Z"/><path class="cls-3" d="M260.05,566.12c0-4.85.19-9.71-.07-14.54-.16-3,1.48-2.78,3.4-2.67,1.71.1,3.65-.72,3.59,2.49-.19,10-.22,20,0,29.94.08,3.47-2,2.47-3.83,2.69-2.31.27-3.26-.38-3.15-2.94C260.2,576.11,260.05,571.11,260.05,566.12Z"/><path class="cls-1" d="M110.3,507.46c-11.59,0-21.63-10-21.59-21.47s10.13-21.48,21.67-21.41,21.7,10.1,21.63,21.48S121.88,507.46,110.3,507.46Z"/><path class="cls-2" d="M300.61,472.62c3.28,7.15,6.18,13.45,9.06,19.77.66,1.43.15,2.15-1.41,2.15-5.14,0-10.27,0-15.4,0-1.18,0-2.05-.39-1.42-1.8C294.36,486.3,297.31,479.86,300.61,472.62Z"/><path class="cls-2" d="M400.2,578a11.07,11.07,0,1,1,11.42-10.86A11.19,11.19,0,0,1,400.2,578Z"/><path class="cls-2" d="M158.27,562.15c.83-2.83-2.07-7.39,4.33-7,7.16.38,10.19,2.07,10.19,6.88s-3.41,6.92-10.55,7.18C155.55,569.41,159.59,564.43,158.27,562.15Z"/><path class="cls-2" d="M227.64,566.36a14.46,14.46,0,0,1,0-2.55c.45-2.68-1.56-6.87,1.08-7.78a12.36,12.36,0,0,1,12.48,2.15c3.18,2.86,4.57,6.44,3.53,10.73s-3.49,7.15-7.81,8.14c-8,1.83-9.31.76-9.31-7.27Z"/><path class="cls-2" d="M351.72,566.23a10.93,10.93,0,0,1,0-2.56c.64-2.66-1.89-6.93,1.58-7.8,4.59-1.17,9.81-.82,13.28,3.59a10.58,10.58,0,0,1,1.54,11.61,10.11,10.11,0,0,1-9.37,6.26c-7.06.36-7.06.4-7.06-6.83Z"/><path class="cls-2" d="M90.88,560.64c2.4,2.77,3,5.94,4.54,8.6.65,1.12.16,1.88-1.19,2a3,3,0,0,1-.42,0c-2.35-.2-5.43,1.06-6.87-.62-1.23-1.43,1.26-3.68,1.94-5.62C89.38,563.59,90.12,562.27,90.88,560.64Z"/><path class="cls-2" d="M321,560.67a7.55,7.55,0,0,1,2.37,4.11c.62,1.91,3.34,4.17,1.67,5.52-1.48,1.2-4.59.45-7,.48-1.27,0-1.95-.71-1.31-1.91C318.12,566.18,318.78,563.07,321,560.67Z"/></svg>