<svg xmlns="http://www.w3.org/2000/svg" xmlns:xlink="http://www.w3.org/1999/xlink" preserveAspectRatio="xMidYMid" width="254" height="60" viewBox="0 0 254 60">
  <defs>
    <style>
      .cls-1 {
        fill: #091d3e;
      }

      .cls-1, .cls-2, .cls-3, .cls-4 {
        fill-rule: evenodd;
      }

      .cls-2 {
        fill: #0468d1;
      }

      .cls-3 {
        fill: #0676ec;
      }

      .cls-4 {
        fill: #fafbfd;
      }
    </style>
  </defs>
  <g>
    <path d="M246.353,36.399 L252.412,36.399 C253.469,36.399 253.998,36.924 253.998,37.973 L253.998,41.336 C253.998,45.057 252.953,47.932 250.861,49.959 C248.769,51.987 245.848,53.000 242.098,53.000 L234.236,53.000 C230.437,53.000 227.503,51.999 225.436,49.995 C223.368,47.991 222.335,45.106 222.335,41.336 L222.335,18.652 C222.335,14.884 223.368,11.997 225.436,9.994 C227.503,7.990 230.437,6.988 234.236,6.988 L242.098,6.988 C245.848,6.988 248.769,8.002 250.861,10.029 C252.953,12.058 253.998,14.931 253.998,18.652 L253.998,22.016 C253.998,23.065 253.469,23.590 252.412,23.590 L246.353,23.590 C245.343,23.590 244.838,23.065 244.838,22.016 L244.838,19.082 C244.838,17.555 244.514,16.470 243.865,15.826 C243.215,15.182 242.121,14.860 240.583,14.860 L235.678,14.860 C234.187,14.860 233.118,15.182 232.469,15.826 C231.820,16.470 231.495,17.555 231.495,19.082 L231.495,40.907 C231.495,42.434 231.820,43.519 232.469,44.163 C233.118,44.807 234.187,45.129 235.678,45.129 L240.583,45.129 C242.121,45.129 243.215,44.807 243.865,44.163 C244.514,43.519 244.838,42.434 244.838,40.907 L244.838,37.973 C244.838,36.924 245.343,36.399 246.353,36.399 ZM211.805,53.000 L205.674,53.000 C204.664,53.000 204.159,52.500 204.159,51.498 L204.159,8.491 C204.159,7.489 204.664,6.988 205.674,6.988 L211.805,6.988 C212.814,6.988 213.319,7.489 213.319,8.491 L213.319,51.498 C213.319,52.500 212.814,53.000 211.805,53.000 ZM183.243,53.000 L165.428,53.000 C164.418,53.000 163.913,52.500 163.913,51.498 L163.913,8.491 C163.913,7.489 164.418,6.988 165.428,6.988 L183.243,6.988 C186.994,6.988 189.915,8.002 192.006,10.029 C194.098,12.058 195.144,14.931 195.144,18.652 L195.144,41.336 C195.144,45.057 194.098,47.932 192.006,49.959 C189.915,51.987 186.994,53.000 183.243,53.000 ZM185.984,19.082 C185.984,17.555 185.659,16.470 185.010,15.826 C184.361,15.182 183.267,14.860 181.728,14.860 L173.867,14.860 C173.337,14.860 173.073,15.122 173.073,15.647 L173.073,44.342 C173.073,44.867 173.337,45.129 173.867,45.129 L181.728,45.129 C183.267,45.129 184.361,44.807 185.010,44.163 C185.659,43.519 185.984,42.434 185.984,40.907 L185.984,19.082 ZM154.465,53.000 L130.880,53.000 C129.870,53.000 129.365,52.500 129.365,51.498 L129.365,8.491 C129.365,7.489 129.870,6.988 130.880,6.988 L154.465,6.988 C155.427,6.988 155.908,7.489 155.908,8.491 L155.908,13.357 C155.908,14.359 155.427,14.860 154.465,14.860 L139.391,14.860 C138.814,14.860 138.526,15.122 138.526,15.647 L138.526,24.949 C138.526,25.475 138.814,25.737 139.391,25.737 L151.725,25.737 C152.734,25.737 153.239,26.238 153.239,27.239 L153.239,32.105 C153.239,33.107 152.734,33.608 151.725,33.608 L139.391,33.608 C138.814,33.608 138.526,33.871 138.526,34.395 L138.526,44.342 C138.526,44.867 138.814,45.129 139.391,45.129 L154.465,45.129 C155.427,45.129 155.908,45.630 155.908,46.632 L155.908,51.498 C155.908,52.500 155.427,53.000 154.465,53.000 ZM118.474,53.000 L112.560,53.000 C111.550,53.000 111.045,52.500 111.045,51.498 L111.045,17.579 L110.757,17.579 L103.400,41.551 C103.112,42.506 102.510,42.982 101.597,42.982 L95.538,42.982 C94.624,42.982 94.024,42.506 93.735,41.551 L86.234,17.507 L85.946,17.507 L85.946,51.498 C85.946,52.070 85.849,52.464 85.657,52.678 C85.464,52.893 85.055,53.000 84.431,53.000 L78.517,53.000 C77.507,53.000 77.002,52.500 77.002,51.498 L77.002,8.491 C77.002,7.489 77.507,6.988 78.517,6.988 L89.263,6.988 C89.936,6.988 90.393,7.323 90.634,7.990 L98.279,33.250 L98.712,33.250 L106.429,7.990 C106.574,7.323 107.030,6.988 107.800,6.988 L118.474,6.988 C119.484,6.988 119.989,7.489 119.989,8.491 L119.989,51.498 C119.989,52.500 119.484,53.000 118.474,53.000 Z" class="cls-1"/>
    <path d="M-0.003,24.234 C5.620,24.226 11.243,24.204 16.866,24.227 C17.760,24.230 18.076,24.160 17.848,23.076 C16.700,17.646 16.133,12.187 17.699,6.724 C18.412,4.237 19.633,2.257 21.212,1.000 C21.466,1.325 21.323,1.685 21.290,2.010 C20.488,9.891 21.714,17.520 24.066,25.023 C26.271,32.059 29.833,38.375 33.919,44.466 C36.403,48.170 39.230,51.655 41.287,55.645 C41.694,56.435 42.002,57.199 41.915,58.136 C41.803,59.331 41.401,59.868 40.201,59.951 C39.486,60.001 38.766,59.965 38.048,59.966 C32.345,59.966 26.642,59.947 20.939,59.986 C20.091,59.991 19.880,59.754 19.891,58.920 C19.945,55.045 19.896,51.169 19.958,47.295 C19.973,46.353 19.728,46.085 18.776,46.092 C12.914,46.135 7.051,46.115 1.188,46.111 C0.791,46.111 0.394,46.076 -0.003,46.057 C-0.003,45.977 -0.003,45.897 -0.003,45.817 C0.362,45.505 0.231,45.079 0.231,44.698 C0.238,38.409 0.238,32.121 0.231,25.832 C0.231,25.451 0.362,25.025 -0.003,24.713 C-0.003,24.553 -0.003,24.393 -0.003,24.234 Z" class="cls-2"/>
    <path d="M47.157,54.990 C42.957,50.339 40.328,44.964 39.963,38.547 C40.345,37.413 40.336,36.278 39.969,35.143 C40.148,31.291 41.436,27.823 43.422,24.591 C43.685,24.163 44.010,24.016 44.493,24.017 C50.050,24.030 55.607,24.033 61.164,24.016 C61.758,24.014 61.990,24.161 61.987,24.824 C61.955,31.699 61.939,38.574 61.960,45.450 C61.962,46.417 61.380,46.221 60.865,46.218 C56.411,46.188 51.957,46.186 47.506,46.083 C46.398,46.057 46.115,46.391 46.153,47.493 C46.239,49.977 46.646,52.387 47.378,54.748 C47.305,54.828 47.231,54.909 47.157,54.990 Z" class="cls-3"/>
    <path d="M24.031,0.010 C30.342,0.007 36.654,0.004 42.966,0.001 C42.975,7.003 42.984,14.004 42.996,21.006 C42.997,21.373 42.972,21.703 42.676,21.987 C40.670,23.920 38.407,25.000 35.558,24.291 C31.650,23.320 28.431,21.302 26.474,17.694 C23.460,12.139 22.979,6.167 24.031,0.010 Z" class="cls-3"/>
    <path d="M33.504,10.990 C36.004,10.992 38.003,13.016 37.984,15.527 C37.966,18.020 35.904,20.047 33.427,20.006 C30.994,19.966 29.002,17.947 28.993,15.511 C28.983,13.014 31.005,10.988 33.504,10.990 Z" class="cls-4"/>
  </g>
</svg>
