<?xml version="1.0" encoding="utf-8"?>
<!-- Generator: Adobe Illustrator 16.0.3, SVG Export Plug-In . SVG Version: 6.00 Build 0)  -->
<!DOCTYPE svg PUBLIC "-//W3C//DTD SVG 1.1//EN" "http://www.w3.org/Graphics/SVG/1.1/DTD/svg11.dtd">
<svg version="1.1" id="Capa_1" xmlns="http://www.w3.org/2000/svg" xmlns:xlink="http://www.w3.org/1999/xlink" x="0px" y="0px"
	 width="306.429px" height="71.5px" viewBox="0 0 306.429 71.5" enable-background="new 0 0 306.429 71.5" xml:space="preserve">
<g>
	<g>
		<path fill-rule="evenodd" clip-rule="evenodd" fill="#170C5A" d="M140.468,62.403c-0.925,0.04-1.912-0.187-2.916-0.431
			c-0.812-0.196-1.693-0.738-2.487,0.314c-0.278,0.369-1.125,0.015-1.229-0.542c-0.337-1.764-0.547-3.551-0.805-5.331
			c-0.033-0.234-0.018-0.477,0.297-0.451c0.394,0.031,0.822,0.059,1.042,0.463c0.172,0.32,0.297,0.667,0.441,1.003
			c0.718,1.668,1.958,2.859,3.522,3.709c1.616,0.877,4.517-0.751,4.794-2.672c0.248-1.718-0.324-3.09-1.763-4.104
			c-1.828-1.287-3.866-2.248-5.597-3.682c-2.706-2.245-2.653-6.422,0.183-8.195c1.768-1.106,3.715-1.108,5.673-0.488
			c0.921,0.291,1.765,0.686,2.764-0.026c0.642-0.456,1.253-0.059,1.343,0.826c0.149,1.46,0.331,2.917,0.452,4.378
			c0.029,0.34,0.329,0.932-0.23,1.001c-0.496,0.062-1.075-0.129-1.262-0.79c-0.419-1.479-1.217-2.707-2.44-3.661
			c-1.315-1.027-3.588-0.887-4.606,0.311c-1.042,1.228-0.739,2.984,0.699,4.27c1.643,1.47,3.665,2.354,5.458,3.596
			c2.562,1.775,3.646,4.043,2.922,6.384C145.882,61.015,143.799,62.41,140.468,62.403z"/>
		<path fill-rule="evenodd" clip-rule="evenodd" fill="#170C5A" d="M180.718,62.405c-1.033,0.027-2.029-0.146-3.026-0.438
			c-0.817-0.238-1.647-0.536-2.51,0.12c-0.541,0.411-1.305-0.18-1.413-0.987c-0.21-1.561-0.412-3.123-0.616-4.685
			c-0.028-0.212-0.13-0.486,0.089-0.605c0.242-0.131,0.46,0.023,0.673,0.216c0.597,0.54,0.885,1.272,1.293,1.931
			c0.924,1.49,1.957,2.852,3.873,3.138c1.74,0.26,3.229-0.396,3.932-1.77c0.668-1.308,0.259-3.376-0.919-4.455
			c-1.008-0.922-2.228-1.538-3.372-2.264c-0.805-0.509-1.624-1.004-2.379-1.581c-2.377-1.815-3.027-4.052-1.962-6.571
			c0.884-2.089,3.248-3.201,5.992-2.772c0.683,0.107,1.343,0.354,2.014,0.537c0.667,0.181,1.253,0.339,1.945-0.172
			c0.811-0.598,1.423-0.216,1.536,0.792c0.158,1.422,0.332,2.845,0.426,4.272c0.024,0.349,0.428,0.997-0.261,1.069
			c-0.499,0.051-1.043-0.161-1.234-0.842c-0.362-1.291-1.017-2.433-2.035-3.333c-1.185-1.047-2.538-1.248-3.977-0.659
			c-1.638,0.669-2.156,2.703-1.062,4.099c1.184,1.512,2.785,2.496,4.428,3.426c0.82,0.464,1.639,0.939,2.414,1.472
			c2.14,1.47,2.894,4.057,2.197,6.249c-0.705,2.217-2.845,3.736-5.386,3.813C181.158,62.411,180.938,62.405,180.718,62.405z"/>
		<path fill-rule="evenodd" clip-rule="evenodd" fill="#170C5A" d="M156.247,61.417c-0.219,0.26-0.332,0.515-0.625,0.504
			c-1.631-0.061-3.278,0.195-4.892-0.223c-0.33-0.085-0.767-0.237-0.307-0.61c2.387-1.933,2.95-4.87,4.108-7.458
			c1.661-3.706,3.169-7.479,4.738-11.227c0.296-0.707,0.594-1.136,1.338-0.359c0.333,0.348,0.639,0.661,0.835,1.112
			c2.199,5.056,4.405,10.11,6.633,15.154c0.552,1.25,0.965,2.654,2.582,3.011c0.202,0.045,0.311,0.193,0.267,0.408
			c-0.054,0.262-0.277,0.192-0.443,0.192c-2.201,0.005-4.403,0.008-6.606,0c-0.403-0.002-0.845-0.113-0.887-0.569
			c-0.05-0.544,0.479-0.325,0.74-0.372c1.026-0.186,1.253-0.803,0.938-1.681c-0.396-1.102-0.862-2.179-1.277-3.274
			c-0.17-0.448-0.459-0.574-0.927-0.568c-1.945,0.024-3.89,0.024-5.834,0.001c-0.512-0.007-0.782,0.132-0.969,0.647
			c-0.421,1.162-0.934,2.292-1.402,3.438c-0.273,0.67,0.075,1.381,0.78,1.444C155.464,61.026,155.778,61.25,156.247,61.417z
			 M159.561,46.852c-1.014,2.522-2.122,4.7-2.857,7.042c1.989,0,3.869,0,5.836,0C161.556,51.568,160.614,49.339,159.561,46.852z"/>
	</g>
	<g>
		<path fill-rule="evenodd" clip-rule="evenodd" fill="#170C5A" d="M222.211,8.584c1.889,0,3.78-0.059,5.664,0.03
			c0.727,0.034,1.218,0.579,1.544,1.319c1.774,4.016,3.602,8.008,5.417,12.006c0.104,0.228,0.251,0.436,0.444,0.766
			c1.376-3.137,2.711-6.17,4.039-9.206c0.616-1.409,1.233-2.816,1.82-4.238c0.208-0.506,0.492-0.71,1.063-0.693
			c1.469,0.044,2.938,0.012,4.407,0.016c0.219,0.001,0.561-0.044,0.632,0.067c0.222,0.35,0.888,0.082,0.86,0.516
			c-0.034,0.538-0.587,0.231-0.895,0.294c-1.192,0.244-1.63,0.747-1.629,2.062c0.003,4.627,0.017,9.255,0.023,13.882
			c0.002,1.77,0.002,1.765,1.678,2.331c0.321,0.108,0.625,0.262,0.938,0.395c-0.17,0.478-0.523,0.321-0.769,0.303
			c-2.205-0.161-4.408,0.052-6.611,0.011c-0.184-0.003-0.366-0.009-0.551-0.006c-0.352,0.005-0.412-0.326-0.478-0.523
			c-0.095-0.287,0.217-0.313,0.423-0.352c1.091-0.21,1.5-0.959,1.502-1.973c0.014-3.848,0.005-7.696,0.005-11.679
			c-0.427,0.257-0.513,0.614-0.648,0.915c-1.917,4.27-3.822,8.544-5.743,12.811c-0.137,0.302-0.167,0.923-0.609,0.755
			c-0.427-0.163-0.987-0.102-1.277-0.757c-1.821-4.119-3.719-8.205-5.596-12.298c-0.146-0.317-0.196-0.696-0.671-1.019
			c0,1.256,0,2.402,0,3.548c-0.001,2.571,0.029,5.143-0.016,7.712c-0.02,1.167,0.165,2.044,1.578,2.127
			c0.32,0.018,0.626,0.275,0.914,0.59c-2.504-0.009-5.013,0.506-7.628-0.246c0.209-0.246,0.246-0.333,0.295-0.34
			c2.497-0.375,2.673-0.571,2.674-3.032c0.002-4.407,0.002-8.814,0.001-13.222c-0.001-1.576-0.074-1.646-1.629-2.029
			c-0.429-0.105-0.75-0.474-1.267-0.435C222.146,8.857,222.179,8.721,222.211,8.584z"/>
		<path fill-rule="evenodd" clip-rule="evenodd" fill="#170C5A" d="M184.217,25.76c-1.424,1.535-3.064,2.697-5.367,2.979
			c1.212,1.57,2.559,2.742,4.241,3.546c0.747,0.359,1.521,0.495,2.331,0.543c0.288,0.018,0.593,0.034,0.856,0.138
			c0.221,0.086,0.39,0.3,0.583,0.458c-0.221,0.147-0.395,0.319-0.722,0.311c-1.69-0.046-3.381-0.133-5.027-0.526
			c-2.812-0.671-5.286-1.944-7.116-4.271c-0.302-0.382-0.676-0.616-1.16-0.773c-1.046-0.337-2.012-0.865-2.91-1.508
			c-0.074-0.16-0.105-0.393-0.23-0.469c-1.166-0.699-1.696-1.861-2.229-3.018c-0.979-2.122-1.078-4.366-0.896-6.647
			c0.315-1.276,0.605-2.558,1.257-3.724c1.47-2.627,3.706-4.171,6.67-4.561c4.754-0.625,9.311,1.438,11.16,5.798
			c0.311,0.735,0.527,1.51,0.789,2.267C186.854,19.728,186.326,22.93,184.217,25.76z M173.257,26.442
			c0.05,0.044,0.1,0.088,0.15,0.132c0.202,0.14,0.237,0.406,0.522,0.517c2.942,1.131,6.045-0.079,7.41-2.946
			c1.088-2.281,1.347-4.7,1.094-7.19c-0.001-0.144-0.002-0.288-0.004-0.432c-0.049-0.292-0.011-0.436-0.12-0.772
			c0.003-0.744-0.201-1.457-0.456-2.134c-0.623-1.665-1.404-3.267-3.229-3.903c-2.877-1.002-5.82,0.344-7.062,3.191
			c-1.147,2.631-1.179,5.396-0.869,8.192c0.217,1.956,0.875,3.706,2.316,5.105l0.017,0.018c0.067,0.065,0.134,0.132,0.201,0.197
			L173.257,26.442z"/>
		<path fill-rule="evenodd" clip-rule="evenodd" fill="#170C5A" d="M111.647,8.583c2.888,0,5.477-0.031,8.065,0.01
			c2.131,0.033,4.218,0.296,6.194,1.223c1.788,0.838,2.638,2.247,2.6,4.134c-0.038,1.856-1.039,3.157-2.755,3.888
			c-0.167,0.07-0.33,0.146-0.491,0.227c-0.028,0.014-0.04,0.061-0.064,0.104c0.697,0.498,1.524,0.74,2.257,1.208
			c1.631,1.042,2.223,2.485,2.065,4.263c-0.183,2.063-1.425,3.396-3.325,4.125c-1.206,0.463-2.459,0.689-3.759,0.684
			c-3.045-0.013-6.092-0.003-9.137-0.003c-0.111,0-0.22,0.003-0.331,0c-0.498-0.015-1.222-0.149-1.238-0.529
			c-0.028-0.608,0.673-0.309,1.063-0.374c1.067-0.176,1.707-0.834,1.711-1.932c0.016-4.807,0.01-9.615,0.003-14.422
			c-0.002-0.965-0.385-1.653-1.462-1.679C112.505,9.497,112.186,9.202,111.647,8.583z M118.341,22.667
			c0,1.098-0.008,2.196,0.003,3.293c0.005,0.484,0.039,1.042,0.623,1.139c1.707,0.288,3.499,0.154,4.86-0.809
			c1.514-1.07,1.691-2.92,1.304-4.688c-0.309-1.408-1.266-2.27-2.693-2.556c-1.114-0.224-2.242-0.291-3.379-0.319
			c-0.595-0.015-0.75,0.193-0.729,0.756C118.37,20.544,118.343,21.606,118.341,22.667z M118.343,13.896c0,0.955,0,1.91,0,2.865
			c0.001,0.296-0.032,0.617,0.414,0.615c1.611-0.003,3.243,0.076,4.642-0.95c1.262-0.925,1.446-2.229,1.212-3.645
			c-0.218-1.312-0.978-2.248-2.269-2.557c-1.031-0.247-2.115-0.196-3.18-0.109c-0.627,0.052-0.866,0.384-0.832,1.025
			C118.378,12.057,118.343,12.978,118.343,13.896z"/>
		<path fill-rule="evenodd" clip-rule="evenodd" fill="#170C5A" d="M162.208,25.122c-2.564,3.531-6.726,4.532-10.533,3.467
			c-4.514-1.263-7.339-4.786-7.581-9.047c-0.221-3.88,0.676-7.361,3.995-9.7c3.083-2.172,6.436-2.25,9.909-0.771
			c3.453,1.469,5.271,4.127,6.018,7.671C164.415,19.751,163.936,22.571,162.208,25.122z M148.926,13.639
			c-1.125,2.511-0.968,5.12-0.588,7.746c0.032,1.275,0.542,2.405,1.06,3.539c0.854,1.87,2.878,3.001,4.904,2.682
			c2.789-0.441,4.301-2.248,5.099-4.809c0.476-1.46,0.808-2.941,0.618-4.495c-0.012-0.443-0.025-0.888-0.038-1.332
			c0.038-0.401,0.027-0.546-0.172-1.16c0.018-1.294-0.181-1.309-0.46-1.974c-0.653-1.563-1.986-3.769-3.432-4.106
			C153.034,9.059,149.79,10.569,148.926,13.639z"/>
		<path fill-rule="evenodd" clip-rule="evenodd" fill="#170C5A" d="M90.191,25.701c0.448,1.006,0.949,2.02,2.279,2.148
			c-0.262,0.572-0.662,0.606-1.115,0.603c-1.837-0.013-3.673-0.004-5.51-0.005c-0.292,0-0.579,0.015-0.846-0.169
			c-0.168-0.116-0.427-0.102-0.42-0.409c0.007-0.319,0.235-0.285,0.445-0.346c1.464-0.433,1.575-0.611,1.07-2.083
			c-0.344-1-0.804-1.961-1.164-2.957c-0.16-0.443-0.442-0.502-0.84-0.5c-1.947,0.012-3.894,0.015-5.841-0.002
			c-0.418-0.002-0.662,0.102-0.811,0.532c-0.396,1.141-0.936,2.226-1.25,3.401c-0.234,0.872-0.253,1.529,0.881,1.664
			c0.305,0.036,0.614,0.206,0.878,0.381c0.231,0.153,0.194,0.473-0.085,0.458c-2.151-0.118-4.356,0.422-6.576-0.421
			c3.276-1.996,3.7-5.539,5.08-8.478c1.612-3.432,2.973-6.981,4.462-10.471c0.153-0.358,0.107-1.027,0.745-0.881
			c0.516,0.119,1.067,0.215,1.338,0.903c0.671,1.701,1.463,3.355,2.207,5.028 M84.161,20.458c-1.003-2.312-1.96-4.512-2.983-6.867
			c-0.985,2.397-1.889,4.599-2.82,6.867C80.416,20.458,82.284,20.458,84.161,20.458z"/>
		<path fill-rule="evenodd" clip-rule="evenodd" fill="#170C5A" d="M204.871,18.907c0.004-2.63,0.006-5.261,0.009-7.891
			c-0.003-0.149-0.007-0.299-0.012-0.45c0.065-0.123,0.017-0.206-0.094-0.267c-0.141-0.676-0.657-0.855-1.234-0.836
			c-0.594,0.02-0.936-0.235-1.21-0.926c2.468,0.303,4.923-0.482,7.459,0.67c-2.853,0.782-2.823,0.783-2.872,3.673
			c-0.057,3.37,0.099,6.738-0.133,10.111c-0.241,3.474-2.607,5.357-5.458,5.807c-2.959,0.468-5.839,0.146-8.265-1.911
			c-1.278-1.568-1.784-3.404-1.799-5.386c-0.026-3.292-0.012-6.584-0.028-9.876c-0.002-0.429,0.114-0.881-0.149-1.284
			c-0.059-0.646-0.508-0.813-1.059-0.892c-0.682-0.098-0.681-0.111-1.332-0.867c2.55,0,5.027,0.008,7.504-0.008
			c0.474-0.003,0.617,0.48,1.103,0.518c-0.357,0.164-0.604,0.308-0.87,0.395c-1.076,0.351-1.685,0.774-1.592,2.213
			c0.205,3.18,0.04,6.382,0.072,9.575c0.015,1.352,0.074,2.712,0.627,3.991c0.529,1.221,1.406,1.941,2.762,2.007
			c1.026,0.051,2.052,0.11,3.067-0.138c2.169-0.529,3.385-2.293,3.426-4.988"/>
		<path fill-rule="evenodd" clip-rule="evenodd" fill="#170C5A" d="M95.64,13.856c-0.014-1.773,0.313-3.389,1.792-4.61
			c0.876-0.725,1.869-1.049,2.95-1.089c1.305-0.048,2.579-0.008,3.793,0.726c0.422,0.255,1.229,0.269,1.84-0.208
			c0.797-0.623,1.417-0.291,1.521,0.718c0.147,1.459,0.319,2.917,0.454,4.377c0.023,0.25,0.233,0.658-0.199,0.733
			c-0.347,0.061-0.719,0.149-1.019-0.332c-0.237-0.382-0.365-0.789-0.555-1.177c-0.907-1.853-2.021-3.442-4.379-3.433
			c-1.438,0.006-2.671,0.861-3.065,2.201c-0.338,1.146,0.439,1.935,1.085,2.703c0.893,1.06,2.136,1.668,3.296,2.379
			c1.35,0.828,2.733,1.616,3.903,2.695c1.704,1.571,2.055,3.579,1.363,5.664c-0.718,2.158-2.394,3.392-4.659,3.664
			c-1.422,0.171-2.837,0.062-4.249-0.344c-0.841-0.242-1.838-0.854-2.62,0.306c-0.217,0.322-1.197-0.212-1.272-0.702
			c-0.241-1.559-0.478-3.118-0.664-4.683c-0.036-0.299-0.384-0.816,0.156-0.929c0.475-0.1,0.997,0.017,1.217,0.634
			c0.447,1.255,1.118,2.374,2.103,3.291c1.507,1.406,3.777,1.649,5.488,0.579c1.514-0.948,1.559-3.958,0.032-5.491
			c-0.484-0.487-1.085-0.87-1.667-1.252c-1.833-1.208-3.83-2.181-5.413-3.75c-0.055-0.059-0.11-0.116-0.165-0.175l-0.029-0.033
			c-0.061-0.071-0.122-0.143-0.183-0.214c-0.169-0.302-0.337-0.603-0.506-0.904c-0.065-0.16-0.065-0.243-0.151-0.434
			c-0.016-0.078-0.034-0.154-0.05-0.232C95.672,14.295,95.66,14.193,95.64,13.856z"/>
		<path fill-rule="evenodd" clip-rule="evenodd" fill="#170C5A" d="M211.065,8.806c0.359-0.333,0.7-0.216,1.003-0.217
			c2.313-0.011,4.625-0.005,6.938-0.004c0.256,0,0.621-0.091,0.746,0.04c0.253,0.265,0.847,0.146,0.827,0.544
			c-0.023,0.479-0.528,0.239-0.813,0.276c-1.538,0.195-2.036,0.734-2.037,2.294c-0.001,4.663-0.003,9.325,0.002,13.986
			c0.002,1.467,0.282,1.793,1.781,1.942c0.525,0.051,0.485,0.402,0.612,0.82c-3.024-0.239-6.033,0.312-9.231-0.38
			c0.603-0.583,1.113-0.433,1.54-0.551c1.035-0.284,1.614-0.816,1.602-2.009c-0.042-4.735-0.014-9.471-0.017-14.207
			c0-1.468-0.217-1.735-1.648-1.885C211.841,9.399,211.518,9.087,211.065,8.806z"/>
		<path fill-rule="evenodd" clip-rule="evenodd" fill="#170C5A" d="M132.65,9.033c-0.072-0.421,0.187-0.459,0.509-0.462
			c0.571-0.003,1.143-0.027,1.716-0.043c0.142,0,0.285,0,0.428,0c0.076,0.005,0.152,0.01,0.228,0.016
			c1.648,0.013,3.298,0.025,4.948,0.041c0.291,0.002,0.677-0.085,0.852,0.064c0.239,0.206,0.762,0.134,0.733,0.519
			c-0.035,0.501-0.514,0.215-0.787,0.275c-0.747,0.164-1.545,0.212-1.842,1.112c-0.388,2.056-0.117,4.127-0.146,6.19
			c-0.015,3.152-0.031,6.303-0.045,9.455c-0.004,0.969,0.568,1.377,1.449,1.435c0.513,0.034,0.938,0.113,0.915,0.813
			c-2.552,0-5.117,0.003-7.681-0.005c-0.261,0-0.615,0.13-0.67-0.335c-0.048-0.412,0.219-0.467,0.526-0.535
			c0.606-0.137,1.218-0.285,1.518-0.932c0.074-0.161,0.211-0.321,0.211-0.483c0.004-5.119,0.008-10.237-0.026-15.356
			c-0.006-0.916-0.54-1.402-1.51-1.273C133.534,9.363,133.092,9.198,132.65,9.033z"/>
		<path fill-rule="evenodd" clip-rule="evenodd" fill="#D9D9DB" d="M96.499,16.104c0.061,0.071,0.122,0.143,0.183,0.214
			C96.621,16.247,96.56,16.175,96.499,16.104z"/>
		<path fill-rule="evenodd" clip-rule="evenodd" fill="#D9D9DB" d="M96.71,16.351c0.055,0.059,0.109,0.117,0.165,0.175
			C96.82,16.467,96.765,16.41,96.71,16.351z"/>
		<path fill-rule="evenodd" clip-rule="evenodd" fill="#D9D9DB" d="M204.774,10.3c0.111,0.061,0.159,0.145,0.094,0.267
			C204.837,10.478,204.805,10.389,204.774,10.3z"/>
		<path fill-rule="evenodd" clip-rule="evenodd" fill="#FBFBFB" d="M173.026,26.22c0.067,0.065,0.134,0.132,0.201,0.197
			C173.161,26.352,173.094,26.285,173.026,26.22z"/>
		<path fill-rule="evenodd" clip-rule="evenodd" fill="#FBFBFB" d="M173.257,26.442c0.041,0.055,0.091,0.099,0.15,0.132
			C173.357,26.53,173.308,26.486,173.257,26.442z"/>
		<path fill-rule="evenodd" clip-rule="evenodd" fill="#FBFBFB" d="M159.979,16.97c0.013,0.444,0.026,0.889,0.038,1.332"/>
	</g>
</g>
<g>
	<path fill-rule="evenodd" clip-rule="evenodd" fill="#8F8CC2" d="M20.518,29.071c0.579-0.862,0.886-1.84,1.169-2.82
		c0.265-0.912,0.677-1.768,0.936-2.68c0.067-0.234,0.255-0.327,0.482-0.348c0.283-0.025,0.501,0.108,0.612,0.348
		c0.308,0.665,0.688,1.294,0.871,2.02c0.154,0.61,0.313,1.238,0.792,1.707c0.146,0.629,0.43,1.21,0.625,1.822
		c0.091,0.284,0.228,0.473,0.517,0.543c-0.104,0.005-0.208,0.012-0.311,0.016c-0.569,0.087-1.143,0.04-1.712,0.078
		c-0.468,0.032-0.946,0.095-1.327,0.488c1.138,0.121,1.473,0.488,1.47,1.599c-0.002,1.146-0.017,2.291-0.056,3.437
		c-0.042,1.231,0.081,2.464,0.061,3.698c-0.019,1.037-0.303,1.388-1.345,1.565c-0.156-0.55-0.293-1.105-0.472-1.649
		c-0.497-1.515-1.062-3.004-1.8-4.421c-0.01-0.171,0.091-0.425-0.193-0.435c-0.267-0.01-0.221,0.242-0.242,0.418
		c-0.003,0.025-0.003,0.049-0.005,0.074l-0.008,0.009c-0.019,0.026-0.038,0.053-0.056,0.079c-0.008,0.048-0.009,0.1-0.025,0.147
		c-0.813,2.422-1.637,4.84-2.437,7.266c-0.347,1.052-0.771,2.082-0.998,3.171c-0.122,0.589,0.125,0.882,0.724,0.967
		c0.51,0.072,1.021,0.059,1.531,0.061c1.611,0.004,3.222,0.008,4.833,0.003c0.912-0.003,1.22-0.443,0.936-1.31
		c-0.012-0.035-0.026-0.069-0.039-0.104c-0.442-1.245-0.883-2.49-1.326-3.734c0.224-0.007,0.449-0.018,0.672-0.019
		c1.954-0.003,3.908,0.007,5.86-0.081c0.226,0.804,0.545,1.575,0.84,2.354c0.732,1.935,1.496,3.854,2.123,5.83
		c0.296,0.933,0.783,1.805,1.115,2.732c0.749,2.087,1.538,4.16,2.373,6.214c0.138,0.34,0.276,0.679,0.698,0.753
		c-0.216,0.597-0.672,0.951-1.239,1.16c-1.023,0.375-2.057,0.293-3.08-0.013c-0.549-0.164-0.918-0.555-1.139-1.063
		c-0.219-0.505-0.328-1.045-0.329-1.599c-0.004-2.048-0.005-4.096-0.005-6.144c0-0.853,0.208-1.09,1.057-1.224
		c0.212-0.034,0.382-0.113,0.373-0.379c-0.011-0.29-0.223-0.215-0.382-0.215c-1.498-0.003-2.996-0.003-4.496,0
		c-0.077,0-0.172-0.044-0.246,0.063c0.128,0.101,0.244,0.216,0.38,0.293c0.205,0.117,0.423,0.215,0.64,0.309
		c0.516,0.223,0.662,0.438,0.659,1c-0.005,1.32-0.014,2.64-0.01,3.96c0.001,0.275-0.119,0.542-0.051,0.816
		c0.083,0.338,0.056,0.667-0.041,0.996c-0.347-0.693-0.541-1.444-0.806-2.168c-0.653-1.777-1.212-3.586-1.898-5.351
		c-0.256-0.659-0.757-0.96-1.416-0.964c-2.522-0.018-5.045-0.037-7.567,0.001c-1.48,0.023-2.546,1.194-2.552,2.682
		c-0.002,0.336-0.025,0.675,0.087,1.001c-0.446,0.952-0.722,1.95-0.836,2.994c-0.152-0.01-0.211,0.108-0.286,0.206
		c-0.207,0.273-0.347,0.583-0.407,0.915c-0.194,1.062-0.537,2.093-0.622,3.179c-0.059,0.76,0.299,1.384,1.008,1.646
		c0.485,0.179,0.99,0.263,1.499,0.259c0.355-0.002,0.712,0.161,1.067,0.006c0.341-0.015,0.628,0.167,0.941,0.254
		c0.452,0.125,0.47,0.463,0.387,0.791c-0.052,0.202-0.092,0.426-0.204,0.615c-0.826-0.058-1.651,0.129-2.482,0.006
		c-0.331-0.049-0.653-0.132-0.979-0.195c-0.245-0.047-0.439-0.019-0.6,0.172c-0.211,0.002-0.422,0-0.632,0.006
		c-0.544,0.015-1.07-0.184-1.616-0.129c-1.516-0.036-3.029-0.199-4.542,0.108C6.618,62.951,6.161,63,5.708,62.904
		c-0.364-0.076-0.593-0.245-0.637-0.618c-0.062-0.521,0.085-0.795,0.51-0.954c0.53-0.198,1.095-0.222,1.645-0.313
		c0.736-0.122,1.441-0.294,1.974-0.87c0.343-0.371,0.558-0.793,0.521-1.313c0.576-0.987,0.956-2.062,1.356-3.126
		c0.042-0.076,0.093-0.147,0.125-0.228c1.047-2.534,2.008-5.1,2.919-7.685c1.101-3.125,2.219-6.246,3.312-9.374
		c0.191-0.548,0.392-1.105,0.388-1.704c0.138-0.439,0.402-0.825,0.532-1.273c0.179-0.619,0.448-1.21,0.652-1.82
		c0.223-0.668,0.424-1.349,0.666-2.005C19.983,30.777,20.143,29.888,20.518,29.071z"/>
	<path fill-rule="evenodd" clip-rule="evenodd" fill="#8F8CC2" d="M58.916,49.393c-0.008-0.329-0.21-0.555-0.423-0.764
		c-0.871-0.854-1.904-1.483-2.953-2.087c-1.653-0.951-3.411-1.71-5.037-2.709c-1.146-0.704-2.306-1.394-3.248-2.378
		c-0.094-0.099-0.177-0.208-0.265-0.312c1.301-0.112,2.498-0.481,3.538-1.313c0.89-0.712,1.53-1.613,2.087-2.587
		c1.241,0.607,2.466,1.253,3.728,1.813c2.161,0.961,4.108,2.234,5.866,3.812c0.326,0.292,0.612,0.652,1.047,0.811
		c0.162,0.364,0.582,0.536,0.694,0.937c-0.101,0.429,0.109,0.774,0.293,1.13c0.902,1.744,1.398,3.596,1.412,5.562
		c0.019,2.348-0.699,4.488-1.952,6.453c-0.509,0.798-1.006,1.608-1.679,2.287c-0.285,0.287-0.603,0.521-1.014,0.596
		c-0.12-0.324-0.364-0.478-0.697-0.528c-0.386-0.058-0.627-0.267-0.65-0.68c0.619-0.491,0.929-1.186,1.205-1.889
		c0.544-1.391,0.534-2.823,0.244-4.266c-0.227-1.117-0.44-2.239-1.379-3.032c0.18-0.231,0.449-0.153,0.682-0.206
		c0.173-0.04,0.389-0.061,0.369-0.33c-0.019-0.262-0.193-0.318-0.415-0.318C59.885,49.394,59.401,49.393,58.916,49.393z"/>
	<path fill-rule="evenodd" clip-rule="evenodd" fill="#8F8F8F" d="M27.11,6.954c-0.474-0.238-0.984-0.258-1.499-0.234
		c-0.708,0.034-1.355-0.163-1.969-0.5c-0.795-0.438-0.983-1.022-0.604-1.849c0.145-0.317,0.391-0.581,0.47-0.931
		c0.028-0.124,0.151-0.163,0.245-0.219c0.914-0.547,1.901-0.677,2.919-0.417c1.994,0.508,4.001,0.947,6.054,1.126
		c1.482,0.129,2.961,0.049,4.437-0.161c2.636-0.376,5.252-0.948,7.939-0.861c0.504,0.016,0.992,0.115,1.449,0.328
		c1.066,0.497,1.428,1.443,1.556,2.516c0.043,0.364,0.122,0.632,0.529,0.75c0.38,0.11,0.574,0.426,0.6,0.825
		c0.121,1.826,0.07,3.639-0.459,5.408c-0.129,0.429-0.289,0.852-0.484,1.254c-0.22,0.454-0.399,0.907-0.444,1.416
		c-0.101,1.129-0.254,2.254-0.326,3.384c-0.138,2.173,0.042,4.312,0.833,6.367c-0.058,0.08-0.106,0.169-0.174,0.239
		c-0.99,1.011-2.064,1.947-2.838,3.153c-1.34-0.891-1.456-1.186-0.886-2.681c0.63-1.655,0.857-3.368,0.907-5.126
		c0.07-2.448,0.056-4.895,0.027-7.342c-0.013-1.098-0.042-2.192,0.088-3.285c0.095-0.794,0.283-1.568,0.475-2.342
		c0.1-0.399,0.022-0.518-0.366-0.533C44.093,7.179,42.622,6.897,41.14,6.7c-1.116-0.148-2.234-0.188-3.355-0.112
		c-1.357,0.093-2.717,0.117-4.077,0.157c-1.285,0.038-2.57,0.047-3.856,0.048c-0.183,0-0.345,0.032-0.484,0.157
		C28.616,6.951,27.864,6.953,27.11,6.954z"/>
	<path fill-rule="evenodd" clip-rule="evenodd" fill="#B6B6B6" d="M20.518,29.071c-0.375,0.817-0.535,1.706-0.847,2.548
		c-0.242,0.656-0.443,1.337-0.666,2.005c-0.204,0.61-0.474,1.201-0.652,1.82c-0.129,0.448-0.394,0.834-0.532,1.273
		c-0.355,0.067-0.719,0.131-1.002,0.374c-1.284,1.102-2.615,2.153-3.667,3.502c-1.293,1.66-2.231,3.491-2.858,5.502
		c-0.361,1.155-0.143,2.385-0.565,3.519c-0.151-0.018-0.274,0.043-0.353,0.163c-0.424,0.648-1.045,1.153-1.354,1.884
		C7.95,51.832,7.84,51.959,7.63,51.939c-0.231-0.557-0.366-1.142-0.375-1.74c-0.018-1.235-0.04-2.474,0.007-3.708
		c0.07-1.843,0.432-3.626,1.269-5.293c0.229-0.455,0.289-0.976,0.524-1.435c0.777-1.521,1.622-3.002,2.641-4.378
		c0.804-1.086,1.654-2.148,2.741-2.948c1.607-1.182,3.225-2.378,5.172-2.973C19.933,29.365,20.168,29.09,20.518,29.071z"/>
	<path fill-rule="evenodd" clip-rule="evenodd" fill="#53538E" d="M58.916,49.393c0.485,0,0.97,0.001,1.455,0
		c0.222,0,0.396,0.056,0.415,0.318c0.02,0.27-0.196,0.29-0.369,0.33c-0.233,0.053-0.502-0.025-0.682,0.206
		c-0.366-0.019-0.386,0.241-0.386,0.497c0,0.899,0.01,1.798,0.015,2.697c0.002,0.156,0.004,0.312,0.005,0.467
		c0,0.038,0,0.075,0,0.113c-0.001,0.886-0.002,1.772-0.007,2.658c-0.001,0.155,0.019,0.298,0.121,0.42
		c0.061,0.778,0.122,1.558,0.182,2.335c0.022,0.414,0.264,0.622,0.65,0.68c0.333,0.05,0.577,0.204,0.697,0.528
		c-0.027,0.021-0.055,0.042-0.083,0.063c-0.163-0.09-0.34-0.051-0.512-0.06c-0.829-0.044-1.656,0.172-2.484,0.004
		c-0.554-0.051-1.134,0.138-1.703-0.177c0.515-0.262,1.114-0.331,1.387-0.891c0.205-0.273,0.06-0.577,0.076-0.866
		c-0.041-0.143-0.042-0.285,0-0.426c0.006-1.044,0.01-2.088,0.021-3.132c0.003-0.274-0.019-0.542-0.122-0.799
		c-0.012-0.423-0.012-0.848-0.039-1.271c-0.028-0.426-0.104-0.845-0.411-1.236c-0.586,1.479-1.151,2.903-1.716,4.328
		c-0.527,1.333-1.053,2.667-1.582,4c-0.038,0.097-0.042,0.229-0.203,0.226c-0.155-0.003-0.264-0.06-0.313-0.212
		c-0.016-0.048-0.039-0.092-0.058-0.138c-1.106-2.646-2.21-5.292-3.319-7.937c-0.042-0.101-0.037-0.267-0.234-0.223
		c-0.175,0.04-0.186,0.16-0.192,0.309c-0.02,0.461-0.05,0.922-0.084,1.382c-0.134,1.845-0.221,3.689-0.066,5.537
		c0.069,0.815,0.307,1.047,1.118,1.085c0.434,0.019,0.476,0.087,0.306,0.497c-1.035,0.002-2.07,0.013-3.104,0.001
		c-0.204-0.003-0.533,0.139-0.591-0.137c-0.067-0.319,0.308-0.291,0.503-0.367c0.979-0.384,1.021-0.68,0.952-1.367
		c0.311-1.889,0.388-3.794,0.418-5.705c0.012-0.723,0.036-1.447,0.05-2.17c0.014-0.683-0.079-0.811-0.725-1.033
		c-0.096-0.033-0.261-0.013-0.247-0.166c0.012-0.127,0.165-0.09,0.251-0.097c0.758-0.057,1.516-0.135,2.278-0.122
		c0.297,0.005,0.478,0.15,0.589,0.428c0.885,2.21,1.776,4.417,2.667,6.626c0.014,0.034,0.028,0.069,0.046,0.103
		c0.117,0.222,0.243,0.514,0.483,0.518c0.154,0.002,0.193-0.338,0.27-0.529c0.744-1.85,1.484-3.701,2.154-5.581
		c0.058-0.164,0.134-0.322,0.208-0.479C57.383,49.816,57.993,49.36,58.916,49.393z"/>
	<path fill-rule="evenodd" clip-rule="evenodd" fill="#53538E" d="M14.511,55.026c0.114-1.044,0.391-2.042,0.836-2.994
		c0.57-0.606,1.107-1.248,1.816-1.708c0.432-0.279,0.9-0.479,1.38-0.653c0.188-0.068,0.385-0.095,0.624,0.041
		c-1.558,1.156-2.497,2.619-2.376,4.613c-0.037,0.534-0.063,1.07,0.022,1.6c0.201,1.244,0.738,2.346,1.494,3.337
		c0.378,0.496,0.811,0.962,1.525,0.938l0.002,0.001c0.026,0.024,0.053,0.049,0.08,0.074c0.23,0.167,0.491,0.209,0.772,0.235
		c1.132,0.104,1.885-0.521,2.582-1.285c1.998-2.188,2.055-5.812,0.114-8.043c-0.886-1.017-2.061-1.402-3.362-1.486
		c-0.236-0.015-0.473-0.001-0.735-0.001c0.074-0.307,0.319-0.329,0.525-0.343c1.496-0.104,2.945,0.067,4.252,0.87
		c1.987,1.219,2.963,3.015,2.81,5.333c-0.142,2.162-1.354,3.639-3.261,4.585c-0.458,0.227-0.938,0.391-1.434,0.513
		c-0.227-0.263-0.524-0.23-0.797,0.102c0.291,0.09,0.549,0.031,0.8-0.105c0.126,0.733,0.582,1.253,1.127,1.703
		c0.824,0.682,1.748,1.155,2.848,1.135c0.52-0.009,0.524-0.059,0.713,0.124c-0.353,0.264-0.76,0.344-1.173,0.414
		c-0.137-0.002-0.274-0.01-0.411-0.003c-1.177,0.061-2.324-0.018-3.417-0.54c-0.944-0.45-1.707-1.045-1.938-2.116
		c-0.078-0.361-0.282-0.522-0.596-0.566c-0.734-0.102-1.376-0.414-1.988-0.804c-0.335-0.213-0.669-0.429-1.003-0.644
		c-0.025-0.042-0.044-0.091-0.077-0.127C15.219,58.017,14.703,56.589,14.511,55.026z"/>
	<path fill-rule="evenodd" clip-rule="evenodd" fill="#908DC2" d="M45.346,28.548c0.774-1.206,1.848-2.142,2.838-3.153
		c0.068-0.07,0.117-0.159,0.174-0.239c0.247,0.075,0.465-0.032,0.689-0.104c0.715-0.229,1.37-0.599,2.052-0.902
		c0.847-0.375,1.743-0.501,2.645-0.615c1.029-0.129,2.068-0.137,3.101-0.083c1.787,0.093,3.532,0.427,5.219,1.034
		c0.695,0.25,1.076,0.781,1.174,1.475c0.237,1.669,0.328,3.349,0.19,5.034c-0.026,0.323-0.02,0.649-0.018,0.974
		c0,0.207-0.056,0.394-0.155,0.57c-0.201,0.358-0.606,0.425-0.915,0.152c-0.247-0.219-0.326-0.524-0.433-0.816
		c-0.44-1.193-0.767-2.425-1.267-3.597c-0.692-1.627-1.78-2.857-3.558-3.247c-2.272-0.498-4.495-0.452-6.449,1.062
		c-0.371,0.287-0.776,0.582-0.705,1.151c-0.092,0.142-0.167,0.299-0.279,0.421c-0.563,0.61-0.744,1.355-0.794,2.151
		c-0.207-0.04-0.413-0.084-0.62-0.12c-1.02-0.176-2.039-0.278-3.054,0.037c0.06-0.303,0.11-0.607,0.183-0.907
		C45.391,28.726,45.404,28.639,45.346,28.548z"/>
	<path fill-rule="evenodd" clip-rule="evenodd" fill="#909090" d="M48.857,29.818c0.05-0.796,0.232-1.542,0.794-2.151
		c0.113-0.122,0.188-0.28,0.279-0.421c1.456,0.851,2.966,1.594,4.485,2.324c0.877,0.421,1.755,0.849,2.526,1.456
		c1.553,1.225,2.94,2.627,4.304,4.051c0.919,0.959,1.694,2.031,2.252,3.247c0.836,1.825,1.248,3.731,1.111,5.743
		c-0.033,0.494-0.193,0.625-0.659,0.548c-0.113-0.4-0.533-0.572-0.694-0.936c0.066-0.896-0.154-1.729-0.553-2.524
		c-1.163-2.315-2.711-4.329-4.709-5.984c-1.47-1.217-2.963-2.408-4.6-3.396c-0.703-0.426-1.444-0.795-2.296-0.831
		c-0.103-0.068-0.208-0.125-0.325-0.174C50.113,30.498,49.437,30.252,48.857,29.818z"/>
	<path fill-rule="evenodd" clip-rule="evenodd" fill="#A2A2A2" d="M27.11,6.954c0.754-0.001,1.506-0.002,2.259-0.004
		c0.074,1.632,0.193,3.263,0.21,4.895c0.035,3.262,0.022,6.523,0.008,9.785c-0.002,0.558-0.094,1.118-0.276,1.652
		c-0.177,0.519-0.553,0.78-1.103,0.774c-1.32-0.015-2.41-0.786-2.706-1.901c-0.174-0.654-0.049-1.288,0.128-1.913
		c0.607-2.148,1.029-4.333,1.349-6.541c0.131-0.913,0.336-1.825,0.27-2.746C27.153,9.621,27.096,8.29,27.11,6.954z"/>
	<path fill-rule="evenodd" clip-rule="evenodd" fill="#52528E" d="M30.259,40.987c-1.952,0.087-3.906,0.078-5.86,0.081
		c-0.223,0.001-0.448,0.012-0.672,0.019c-0.601-0.177-0.601-0.177-0.423-0.542c1.042-0.178,1.326-0.528,1.345-1.565
		c0.02-1.234-0.104-2.467-0.061-3.698c0.039-1.146,0.053-2.292,0.056-3.437c0.002-1.111-0.332-1.478-1.47-1.599
		c0.381-0.393,0.859-0.456,1.327-0.488c0.569-0.038,1.143,0.009,1.712-0.078c-0.036,0.048-0.11,0.105-0.101,0.142
		c0.023,0.093,0.132,0.091,0.181,0.047c0.201-0.189,0.444-0.1,0.669-0.122c0.196-0.019,0.396,0.041,0.587-0.039
		c0.063,0.001,0.125,0.002,0.188,0.003c0.113,0.063,0.237,0.023,0.356,0.034c0.818-0.063,1.602,0.138,2.387,0.319
		c0.074,0.155,0.215,0.233,0.353,0.32c0.516,0.33,0.932,0.757,1.149,1.337c0.351,0.935-0.001,1.898-0.912,2.53
		c-0.193,0.135-0.408,0.24-0.609,0.363c-0.083,0.052-0.171,0.115-0.136,0.236c0.027,0.094,0.101,0.13,0.192,0.156
		c0.227,0.064,0.458,0.124,0.675,0.213c0.989,0.404,1.489,1.158,1.565,2.212c0.105,1.469-0.556,2.484-1.849,3.121
		C30.671,40.67,30.445,40.796,30.259,40.987z M26.684,31.388c-0.038,0.781-0.012,1.563-0.074,2.346
		c-0.053,0.675,0.521,1.008,1.117,0.714c0.664,0.283,1.469,0.057,1.936-0.547c0.729-0.942,0.642-2.197-0.222-3.18
		c-0.68-0.622-1.498-0.605-2.321-0.465c-0.282,0.049-0.467,0.283-0.456,0.608C26.669,31.04,26.677,31.214,26.684,31.388z
		 M29.977,39.752c0.149-0.026,0.229-0.145,0.315-0.248c0.476-0.571,0.641-1.229,0.504-1.953c-0.286-1.52-1.011-2.571-2.696-2.393
		c-0.136-0.007-0.272-0.017-0.41-0.02c-0.797-0.02-1.118,0.288-1.093,1.089c0.013,0.396,0.083,0.79,0.074,1.189
		c-0.013,0.597-0.014,1.195,0,1.793c0.019,0.785,0.579,1.317,1.357,1.336c0.302,0.007,0.605-0.023,0.885-0.103
		C29.329,40.328,29.811,40.267,29.977,39.752z"/>
	<path fill-rule="evenodd" clip-rule="evenodd" fill="#52528E" d="M48.857,29.818c0.58,0.434,1.256,0.679,1.917,0.95
		c0.117,0.049,0.222,0.106,0.325,0.174c0.105,0.154,0.212,0.308,0.318,0.462c0.915,1.337,1.522,2.772,1.429,4.437
		c-0.027,0.478-0.182,0.929-0.23,1.4c-0.557,0.974-1.197,1.875-2.087,2.587c-1.04,0.832-2.237,1.201-3.538,1.313
		c-1.407-0.126-2.773-0.407-3.936-1.266c-1.523-1.124-2.408-2.617-2.426-4.541c-0.021-2.191,1.423-4.303,3.457-5.129
		c0.369-0.151,0.733-0.313,1.099-0.471c1.015-0.315,2.034-0.213,3.054-0.037C48.444,29.734,48.65,29.778,48.857,29.818z
		 M49.015,31.094c-1.376-1.211-3.077-1.451-4.525-0.269c-0.374,0.077-0.592,0.351-0.789,0.641c-1.468,2.153-1.315,5.65,0.351,7.752
		c0.508,0.642,1.079,1.213,1.957,1.316c0.098,0.016,0.196,0.033,0.295,0.047c1.147,0.15,2.163-0.104,2.92-1.029
		c0.995-1.216,1.5-2.602,1.356-4.193C50.702,33.702,50.192,32.276,49.015,31.094z"/>
	<path fill-rule="evenodd" clip-rule="evenodd" fill="#908DC2" d="M57.933,60.649c0.828,0.168,1.655-0.049,2.484-0.004
		c0.172,0.009,0.349-0.031,0.512,0.06c-0.667,0.834-1.56,1.351-2.528,1.734c-1.351,0.533-2.76,0.806-4.214,0.915
		c-2.649,0.198-5.147-0.361-7.559-1.402c-0.538-0.232-1.06-0.5-1.586-0.757c-0.203-0.099-0.391-0.222-0.474-0.45
		c0.282-0.07,0.571-0.01,0.855-0.036c0.168-0.014,0.427-0.003,0.462-0.146c0.047-0.19-0.211-0.232-0.357-0.308
		c-0.688-0.355-1.048-0.855-1.034-1.687c0.04-2.379,0.015-4.759,0.016-7.139c0.604,0.257,0.798,0.789,0.901,1.37
		c0.353,1.979,1.084,3.801,2.249,5.444c0.218,0.309,0.472,0.587,0.898,0.592c0.069,0.687,0.026,0.983-0.952,1.367
		c-0.195,0.076-0.571,0.048-0.503,0.367c0.059,0.276,0.388,0.134,0.591,0.137c1.034,0.011,2.069,0,3.104-0.001
		c0.042,0.321,0.26,0.507,0.526,0.629c1.817,0.834,3.682,0.947,5.583,0.327c0.365-0.12,0.719-0.292,0.957-0.62
		C57.947,60.925,58.081,60.808,57.933,60.649z"/>
	<path fill-rule="evenodd" clip-rule="evenodd" fill="#52528E" d="M29.499,56.831c0.097-0.329,0.125-0.658,0.041-0.996
		c-0.067-0.274,0.052-0.542,0.051-0.816c-0.004-1.32,0.005-2.64,0.01-3.96c0.002-0.562-0.143-0.777-0.659-1
		c-0.217-0.094-0.435-0.192-0.64-0.309c-0.137-0.077-0.252-0.192-0.38-0.293c0.074-0.108,0.169-0.063,0.246-0.063
		c1.5-0.003,2.998-0.004,4.496,0c0.16,0,0.371-0.075,0.382,0.215c0.01,0.266-0.161,0.346-0.373,0.379
		c-0.849,0.134-1.057,0.371-1.057,1.224c0,2.048,0,4.096,0.005,6.144c0.001,0.554,0.11,1.094,0.329,1.599
		c0.221,0.509,0.59,0.899,1.139,1.063c1.023,0.306,2.057,0.388,3.08,0.013c0.567-0.208,1.023-0.563,1.239-1.16
		c0.276-0.221,0.298-0.536,0.297-0.851c-0.001-2.323-0.019-4.645-0.003-6.968c0.005-0.635-0.293-1-0.835-1.232
		c0.043-0.178,0.189-0.125,0.303-0.127c0.394-0.005,0.789,0.01,1.183-0.007c0.244-0.01,0.342,0.081,0.322,0.316L38.678,50
		c-0.165-0.01-0.162,0.103-0.161,0.216c-0.174,0.419-0.246,0.854-0.242,1.311c0.01,1.631-0.001,3.263,0.014,4.895
		c0.011,1.169-0.125,2.308-0.597,3.389c-0.203,0.009-0.333,0.161-0.492,0.252c-1.311,0.745-2.688,1.066-4.196,0.737
		c-1.101-0.24-2.043-0.766-2.911-1.454C29.812,58.527,29.554,57.703,29.499,56.831z"/>
	<path fill-rule="evenodd" clip-rule="evenodd" fill="#908DC2" d="M30.094,59.346c0.868,0.688,1.811,1.214,2.911,1.454
		c1.508,0.329,2.885,0.008,4.196-0.737c0.16-0.092,0.29-0.244,0.492-0.252c0.823,0.941,1.919,1.338,3.102,1.584
		c0.63,0.131,0.821,0.406,0.718,0.922c-0.079,0.4-0.532,0.693-1.022,0.626c-1.699-0.234-3.409-0.208-5.117-0.222
		c-0.898-0.007-1.795-0.096-2.693-0.048c-1.519,0.08-3.036,0.187-4.553,0.266c-0.51,0.027-1.022,0.048-1.53-0.049
		c-0.35-0.065-0.521-0.292-0.555-0.616c-0.031-0.298,0.1-0.533,0.392-0.653c0.64-0.265,1.317-0.377,1.998-0.445
		c0.971-0.098,1.648-0.676,1.626-1.687C30.057,59.441,30.081,59.393,30.094,59.346z"/>
	<path fill-rule="evenodd" clip-rule="evenodd" fill="#ABABAC" d="M16.344,59.35c0.334,0.215,0.668,0.431,1.003,0.644
		c0.612,0.39,1.254,0.703,1.988,0.804c0.314,0.043,0.518,0.205,0.596,0.566c0.231,1.071,0.994,1.666,1.938,2.116
		c1.093,0.522,2.24,0.601,3.417,0.54c0.137-0.007,0.274,0.001,0.411,0.003c-0.121,0.094-0.264,0.062-0.397,0.064
		c-0.425,0.004-0.849-0.011-1.272,0.003c-0.214,0.007-0.536-0.122-0.618,0.084c-0.089,0.225,0.171,0.441,0.333,0.625
		c0.422,0.48,0.938,0.854,1.436,1.249c0.313,0.248,0.599,0.525,0.82,0.864c0.092,0.142,0.09,0.229-0.103,0.25
		c-0.32,0.034-0.584,0.195-0.854,0.357c-0.974,0.587-1.92,0.469-2.843-0.137c-0.96-0.63-1.693-1.501-2.46-2.334
		c-0.522-0.567-1.019-1.159-1.53-1.738c-0.116-0.13-0.245-0.249-0.315-0.413c0.112-0.189,0.152-0.413,0.204-0.615
		c0.083-0.328,0.065-0.666-0.387-0.791c-0.313-0.086-0.6-0.269-0.941-0.254c0.029-0.349-0.096-0.657-0.253-0.958
		C16.366,59.986,16.248,59.688,16.344,59.35z"/>
	<path fill-rule="evenodd" clip-rule="evenodd" fill="#52528E" d="M44.512,51.428c-0.001,2.38,0.023,4.76-0.016,7.139
		c-0.014,0.831,0.346,1.332,1.034,1.687c0.146,0.075,0.404,0.118,0.357,0.308c-0.035,0.143-0.294,0.133-0.462,0.146
		c-0.285,0.026-0.573-0.034-0.855,0.036c-0.568-0.183-1.144-0.201-1.734-0.134c-0.508,0.057-1.021,0.062-1.562-0.109
		c0.696-0.145,1.209-0.487,1.368-1.207c0.011,0.028,0.002,0.076,0.058,0.061c0.008-0.002,0.016-0.018,0.017-0.028
		c0.002-0.049,0.002-0.1,0.002-0.149c-0.001-2.729-0.001-5.458-0.004-8.187c0-0.055-0.018-0.111-0.027-0.167
		c-0.014,0.015-0.03,0.028-0.042,0.045c-0.007,0.01-0.005,0.024-0.008,0.036c-0.088-0.589-0.318-1.07-0.948-1.269
		c1.258,0,2.516,0,3.771,0C44.23,50.442,44.17,50.554,44.512,51.428z"/>
	<path fill-rule="evenodd" clip-rule="evenodd" fill="#53538E" d="M38.579,29.762c0.132,0.027,0.327-0.219,0.387,0.035
		c0.051,0.217-0.114,0.357-0.348,0.398c-0.872,0.154-1,0.312-1,1.209c0,2.532,0.025,5.063-0.013,7.595
		c-0.014,0.897,0.222,1.539,1.141,1.825c-1.295,0-2.591,0-4.003,0c0.613-0.173,0.964-0.501,1.126-1.015
		c0.014,0.02,0.027,0.042,0.044,0.06c0.007,0.006,0.023,0.005,0.035,0.006c0.006-0.072,0.019-0.143,0.019-0.214
		c0-2.811,0-5.622-0.003-8.432c0-0.071,0.067-0.168-0.046-0.219c-0.002-0.001-0.015,0.018-0.022,0.027
		c-0.008,0.011-0.014,0.021-0.02,0.032c-0.065-0.095-0.061-0.205-0.07-0.313c0.003-0.108,0.049-0.234-0.122-0.261
		c-0.019-0.01-0.027-0.027-0.024-0.048c-0.026-0.033-0.052-0.066-0.079-0.099l0.008,0.006c-0.028-0.027-0.055-0.055-0.082-0.082
		l0.003,0.007c0.036-0.123-0.065-0.291,0.1-0.369c0.216-0.1,0.175,0.204,0.343,0.226c-0.011-0.237,0.14-0.248,0.32-0.247
		c0.636,0.007,1.273,0.004,1.91,0.002C38.327,29.892,38.489,29.935,38.579,29.762z"/>
	<path fill-rule="evenodd" clip-rule="evenodd" fill="#BABABA" d="M7.63,51.939c0.21,0.02,0.32-0.107,0.392-0.277
		c0.309-0.731,0.93-1.236,1.354-1.884c0.079-0.12,0.201-0.181,0.353-0.163c0.1,0.103,0.057,0.234,0.069,0.354
		c0.055,0.604,0.108,1.208,0.165,1.813c0.102,1.082,0.268,2.154,0.513,3.213c0.078,0.338,0.194,0.65,0.602,0.713
		c-0.4,1.064-0.78,2.139-1.356,3.126c-0.313-0.293-0.458-0.694-0.558-1.079c-0.352-1.348-0.96-2.616-1.253-3.979
		C7.778,53.172,7.721,52.552,7.63,51.939z"/>
	<path fill-rule="evenodd" clip-rule="evenodd" fill="#C4C4C4" d="M11.584,62.756c0.546-0.055,1.072,0.144,1.616,0.129
		c0.21-0.006,0.42-0.004,0.632-0.006c0.03,0.514,0.37,0.866,0.676,1.219c0.97,1.119,1.96,2.222,2.945,3.328
		c0.298,0.335,0.764,0.406,1.101,0.695c0.553,0.475,1.089,0.977,1.775,1.277c-0.008,0.029-0.017,0.058-0.024,0.088
		c-0.365,0-0.73,0-1.096,0c-0.562,0-1.125,0.011-1.686-0.004c-0.301-0.008-0.63-0.019-0.545-0.489c0.022-0.12-0.091-0.2-0.196-0.249
		c-0.784-0.367-1.317-1.015-1.848-1.661c-0.561-0.685-1.244-1.258-1.761-1.982C12.624,64.332,12.028,63.595,11.584,62.756z"/>
	<path fill-rule="evenodd" clip-rule="evenodd" fill="#BABABA" d="M27.736,29.711c-0.062-0.001-0.125-0.002-0.188-0.003
		c-0.342-0.015-0.684-0.03-1.026-0.044c-0.289-0.07-0.425-0.259-0.517-0.543c-0.195-0.612-0.479-1.193-0.625-1.822
		c1.112-0.061,2.208-0.319,3.333-0.258c0.651,0.036,1.217,0.27,1.664,0.726c0.414,0.422,0.27,0.979,0.233,1.493
		c-0.019,0.27-0.086,0.537-0.131,0.805c-0.786-0.181-1.569-0.383-2.387-0.319C27.98,29.664,27.859,29.672,27.736,29.711z"/>
	<path fill-rule="evenodd" clip-rule="evenodd" fill="#ABABAC" d="M19.833,60.199c-0.715,0.024-1.147-0.442-1.525-0.938
		c-0.756-0.991-1.292-2.093-1.494-3.337c-0.086-0.53-0.059-1.066-0.022-1.6c0.297,0.158,0.542,0.386,0.649,0.697
		c0.436,1.273,1.229,2.365,1.784,3.577C19.461,59.116,19.724,59.63,19.833,60.199z"/>
	<path fill-rule="evenodd" clip-rule="evenodd" fill="#56557A" d="M35.875,31.071c0.006-0.011,0.012-0.021,0.02-0.032
		c0.007-0.01,0.02-0.029,0.022-0.027c0.114,0.051,0.046,0.148,0.046,0.219c0.003,2.811,0.003,5.621,0.003,8.432
		c0,0.071-0.013,0.143-0.019,0.214c-0.012-0.001-0.028,0-0.035-0.006c-0.017-0.018-0.03-0.041-0.044-0.06
		c0.001-2.267,0.001-4.533,0.001-6.799C35.87,32.364,35.874,31.718,35.875,31.071z"/>
	<path fill-rule="evenodd" clip-rule="evenodd" fill="#56557A" d="M42.637,50.905c0.002-0.012,0.001-0.026,0.008-0.036
		c0.012-0.017,0.027-0.03,0.042-0.045c0.009,0.056,0.027,0.111,0.027,0.167c0.002,2.729,0.003,5.458,0.004,8.187
		c0,0.049,0,0.1-0.002,0.149c0,0.011-0.009,0.026-0.017,0.028c-0.056,0.016-0.046-0.032-0.058-0.061
		C42.64,56.497,42.638,53.701,42.637,50.905z"/>
	<path fill-rule="evenodd" clip-rule="evenodd" fill="#53538E" d="M38.676,50.002c0.02-0.236-0.079-0.327-0.322-0.316
		c-0.394,0.017-0.789,0.001-1.183,0.007c-0.114,0.001-0.259-0.051-0.303,0.127c-0.169-0.062-0.339-0.124-0.51-0.187
		c0.005-0.017,0.01-0.033,0.013-0.05c1.06,0,2.12,0,3.208,0C39.238,49.668,38.943,49.808,38.676,50.002z"/>
	<path fill-rule="evenodd" clip-rule="evenodd" fill="#56557A" d="M38.579,29.762c-0.09,0.172-0.252,0.13-0.397,0.131
		c-0.637,0.002-1.273,0.004-1.91-0.002c-0.18,0-0.331,0.01-0.32,0.247c-0.168-0.022-0.127-0.326-0.343-0.226
		c-0.166,0.078-0.064,0.246-0.1,0.369c-0.301-0.182-0.621-0.311-0.971-0.334c-0.009-0.017-0.015-0.027-0.021-0.037
		C35.87,29.86,37.225,29.811,38.579,29.762z"/>
	<path fill-rule="evenodd" clip-rule="evenodd" fill="#53538E" d="M38.518,50.216c-0.001-0.113-0.004-0.227,0.161-0.216
		C38.625,50.072,38.571,50.144,38.518,50.216z"/>
	<path fill-rule="evenodd" clip-rule="evenodd" fill="#56557A" d="M35.684,30.497c0.171,0.027,0.125,0.153,0.122,0.261
		C35.765,30.671,35.724,30.584,35.684,30.497z"/>
	<path fill-rule="evenodd" clip-rule="evenodd" fill="#56557A" d="M35.581,30.349c0.026,0.033,0.053,0.066,0.079,0.099
		C35.633,30.415,35.607,30.382,35.581,30.349z"/>
	<path fill-rule="evenodd" clip-rule="evenodd" fill="#56557A" d="M35.506,30.273c0.027,0.027,0.054,0.055,0.082,0.082
		C35.561,30.329,35.533,30.301,35.506,30.273z"/>
	<path fill-rule="evenodd" clip-rule="evenodd" fill="#ABABAC" d="M19.916,60.274c-0.027-0.025-0.054-0.049-0.08-0.074
		C19.862,60.225,19.889,60.249,19.916,60.274z"/>
	<path fill-rule="evenodd" clip-rule="evenodd" fill="#BABABA" d="M21.032,34.475c-0.147,0.02-0.293,0.039-0.44,0.058
		c0.002-0.025,0.002-0.049,0.005-0.074c0.021-0.176-0.025-0.428,0.242-0.418C21.123,34.05,21.021,34.303,21.032,34.475z"/>
	<path fill-rule="evenodd" clip-rule="evenodd" fill="#56557A" d="M26.523,29.663c0.342,0.015,0.684,0.029,1.026,0.044
		c-0.19,0.079-0.391,0.02-0.587,0.039c-0.226,0.022-0.468-0.067-0.669,0.122c-0.049,0.044-0.158,0.046-0.181-0.047
		c-0.009-0.037,0.064-0.093,0.101-0.142C26.315,29.675,26.419,29.668,26.523,29.663z"/>
	<path fill-rule="evenodd" clip-rule="evenodd" fill="#BABABA" d="M20.583,34.542c-0.019,0.026-0.038,0.053-0.056,0.079
		C20.546,34.594,20.565,34.567,20.583,34.542z"/>
	<path fill-rule="evenodd" clip-rule="evenodd" fill="#56557A" d="M57.693,58.288c-0.097-0.864-0.037-1.731-0.07-2.597
		c-0.016-0.444-0.021-0.889-0.031-1.334c0.103,0.257,0.125,0.525,0.122,0.799C57.703,56.2,57.699,57.244,57.693,58.288z"/>
	<path fill-rule="evenodd" clip-rule="evenodd" fill="#56557A" d="M59.369,54.02c0.106,0.211,0.051,0.44,0.057,0.66
		c0.025,0.806,0.038,1.613,0.057,2.418c-0.103-0.123-0.123-0.266-0.121-0.42C59.367,55.792,59.368,54.906,59.369,54.02z"/>
	<path fill-rule="evenodd" clip-rule="evenodd" fill="#56557A" d="M57.616,59.581c0.026-0.289,0.051-0.577,0.076-0.866
		C57.676,59.004,57.821,59.308,57.616,59.581z"/>
	<path fill-rule="evenodd" clip-rule="evenodd" fill="#56557A" d="M59.363,53.44c0.067,0.155,0.064,0.311,0.005,0.467
		C59.367,53.752,59.365,53.597,59.363,53.44z"/>
	<path fill-rule="evenodd" clip-rule="evenodd" fill="#52528E" d="M22.182,60.647c-0.25,0.136-0.509,0.196-0.8,0.105
		c0.273-0.333,0.57-0.365,0.797-0.102C22.179,60.65,22.182,60.647,22.182,60.647z"/>
	<path fill-rule="evenodd" clip-rule="evenodd" fill="#8F8CC2" d="M29.977,39.752c-0.167,0.515-0.648,0.575-1.062,0.691
		c-0.28,0.08-0.583,0.11-0.885,0.103c-0.778-0.019-1.339-0.551-1.357-1.336c-0.014-0.598-0.013-1.196,0-1.793
		c0.009-0.4-0.061-0.793-0.074-1.189c-0.025-0.801,0.296-1.108,1.093-1.089c0.137,0.003,0.273,0.013,0.41,0.02
		c-0.029,0.14,0.009,0.267,0.053,0.4c0.393,1.17,0.903,2.296,1.26,3.478C29.507,39.347,29.685,39.596,29.977,39.752z"/>
	<path fill-rule="evenodd" clip-rule="evenodd" fill="#BABABA" d="M29.44,30.721c-0.707,0.046-1.284,0.425-1.889,0.732
		c-0.197,0.1-0.389,0.211-0.583,0.318c-0.176-0.067-0.085-0.333-0.284-0.383c-0.007-0.174-0.015-0.349-0.021-0.524
		c-0.011-0.325,0.173-0.559,0.456-0.608C27.943,30.116,28.761,30.1,29.44,30.721z"/>
	<path fill-rule="evenodd" clip-rule="evenodd" fill="#908DC2" d="M26.684,31.388c0.199,0.05,0.108,0.316,0.284,0.383
		c0.147,0.732,0.431,1.422,0.648,2.133c0.055,0.179,0.128,0.352,0.109,0.544c-0.596,0.294-1.169-0.039-1.116-0.714
		C26.672,32.951,26.646,32.169,26.684,31.388z"/>
	<path fill-rule="evenodd" clip-rule="evenodd" fill="#56557A" d="M27.736,29.711c0.123-0.039,0.244-0.047,0.356,0.034
		C27.973,29.734,27.85,29.774,27.736,29.711z"/>
	<path fill-rule="evenodd" clip-rule="evenodd" fill="#8F8CC2" d="M50.58,35.36c0.144,1.591-0.361,2.977-1.356,4.193
		c-0.757,0.925-1.773,1.18-2.92,1.029c-0.099-0.014-0.197-0.031-0.295-0.047c0.034-0.143-0.026-0.268-0.07-0.398
		c-0.187-0.558-0.467-1.073-0.739-1.592c-0.916-1.746-1.019-3.617-0.873-5.528c0.054-0.73,0.108-1.461,0.163-2.191
		c1.448-1.183,3.148-0.942,4.525,0.269c-0.123,0.198-0.139,0.419-0.148,0.643C48.804,33.245,49.559,34.365,50.58,35.36z"/>
</g>
</svg>
