<svg xmlns="http://www.w3.org/2000/svg" xmlns:xlink="http://www.w3.org/1999/xlink" preserveAspectRatio="xMidYMid" width="62" height="60" viewBox="0 0 62 60">
  <defs>
    <style>
      .cls-1 {
        fill: #0468d1;
      }

      .cls-1, .cls-2, .cls-3 {
        fill-rule: evenodd;
      }

      .cls-2 {
        fill: #0676ec;
      }

      .cls-3 {
        fill: #fafbfd;
      }
    </style>
  </defs>
  <g>
    <path d="M-0.003,24.234 C5.620,24.226 11.243,24.204 16.866,24.227 C17.760,24.230 18.076,24.160 17.848,23.076 C16.700,17.646 16.133,12.187 17.699,6.724 C18.412,4.237 19.633,2.257 21.212,1.000 C21.466,1.325 21.323,1.685 21.290,2.010 C20.488,9.891 21.714,17.520 24.066,25.023 C26.271,32.059 29.833,38.375 33.919,44.466 C36.403,48.170 39.230,51.655 41.287,55.645 C41.694,56.435 42.002,57.199 41.915,58.136 C41.803,59.331 41.401,59.868 40.201,59.951 C39.486,60.001 38.766,59.965 38.048,59.966 C32.345,59.966 26.642,59.947 20.939,59.986 C20.091,59.991 19.880,59.754 19.891,58.920 C19.945,55.045 19.896,51.169 19.958,47.295 C19.973,46.353 19.728,46.085 18.776,46.092 C12.914,46.135 7.051,46.115 1.188,46.111 C0.791,46.111 0.394,46.076 -0.003,46.057 C-0.003,45.977 -0.003,45.897 -0.003,45.817 C0.362,45.505 0.231,45.079 0.231,44.698 C0.238,38.409 0.238,32.121 0.231,25.832 C0.231,25.451 0.362,25.025 -0.003,24.713 C-0.003,24.553 -0.003,24.393 -0.003,24.234 Z" class="cls-1"/>
    <path d="M47.157,54.990 C42.957,50.339 40.328,44.964 39.963,38.547 C40.345,37.413 40.336,36.278 39.969,35.143 C40.148,31.291 41.436,27.823 43.422,24.591 C43.685,24.163 44.010,24.016 44.493,24.017 C50.050,24.030 55.607,24.033 61.164,24.016 C61.758,24.014 61.990,24.161 61.987,24.824 C61.955,31.699 61.939,38.574 61.959,45.449 C61.962,46.417 61.380,46.221 60.865,46.218 C56.411,46.188 51.957,46.186 47.506,46.083 C46.398,46.057 46.115,46.391 46.153,47.493 C46.239,49.977 46.646,52.387 47.378,54.748 C47.305,54.828 47.231,54.909 47.157,54.990 Z" class="cls-2"/>
    <path d="M24.031,0.010 C30.342,0.007 36.654,0.004 42.966,0.001 C42.975,7.003 42.984,14.004 42.996,21.006 C42.997,21.373 42.972,21.703 42.676,21.987 C40.670,23.920 38.407,25.000 35.558,24.291 C31.650,23.320 28.431,21.302 26.474,17.694 C23.460,12.139 22.979,6.167 24.031,0.010 Z" class="cls-2"/>
    <path d="M33.504,10.990 C36.004,10.992 38.003,13.016 37.984,15.527 C37.966,18.020 35.904,20.047 33.427,20.006 C30.994,19.966 29.002,17.947 28.993,15.511 C28.983,13.014 31.005,10.988 33.504,10.990 Z" class="cls-3"/>
  </g>
</svg>
